<svg width="562" height="95" viewBox="0 0 562 95" fill="none" xmlns="http://www.w3.org/2000/svg">
<path d="M58.724 23.4095L22.4845 41.696V53.4388L16.1625 50.4215V38.6788L52.4021 20.3924L40.23 14.5833C38.6001 13.8056 35.9332 13.8056 34.3034 14.5833L4.33038 28.8879C1.94251 30.0275 -0.00607509 33.2547 1.42331e-05 36.0597L0.0738169 69.5935C0.080028 72.4283 2.07209 75.659 4.50051 76.7734L34.395 90.49C35.9715 91.2134 38.5514 91.2134 40.1281 90.4904L70.0327 76.7733C72.461 75.6594 74.4532 72.429 74.4594 69.5943L74.5334 36.0597C74.5396 33.2547 72.591 30.0275 70.203 28.8879L58.724 23.4095ZM67.7618 50.2516L66.0077 51.1252L65.9721 64.3739C65.9705 64.9529 65.4941 65.642 64.9093 65.9129L62.2832 67.1297C61.7075 67.3965 61.2418 67.1492 61.2415 66.5777L61.2326 53.5031L59.5335 54.3491C58.7344 54.747 58.2342 54.1231 58.631 53.2248L62.6923 44.0279C63.1022 43.0995 64.1301 42.564 64.5415 43.0675L68.7092 48.1671C69.1252 48.6761 68.5971 49.8358 67.7618 50.2516ZM50.614 71.5284C50.6185 72.0831 50.1817 72.7363 49.6396 72.9875L47.2043 74.1159C46.6703 74.3633 46.2335 74.1197 46.2274 73.5721L46.0848 61.0458L44.5091 61.8304C43.768 62.1994 43.2951 61.5941 43.6558 60.7397L47.3472 51.9971C47.7195 51.1151 48.6714 50.6192 49.0598 51.1075L52.9936 56.0534C53.3865 56.5471 52.9069 57.6484 52.1335 58.0334L50.5091 58.8423L50.614 71.5284ZM70.6607 67.8913C70.6588 68.1823 70.4151 68.5273 70.1165 68.662L42.3011 81.2045C42.0416 81.3216 41.8281 81.1989 41.8243 80.9305L41.803 79.4714C41.7991 79.2024 42.0064 78.888 42.2664 78.7692L70.1314 66.0284C70.4304 65.8917 70.6719 66.0172 70.67 66.309L70.6607 67.8913Z" fill="#0055A4"/>
<path d="M22.4845 41.696L58.724 23.4095L52.4021 20.3924L16.1625 38.6788V50.4215L22.4845 53.4388V41.696Z" fill="#FFD100"/>
<path d="M50.614 71.5284C50.6185 72.0831 50.1817 72.7363 49.6396 72.9875L47.2043 74.1159C46.6703 74.3633 46.2335 74.1197 46.2274 73.5721L46.0848 61.0458L44.5091 61.8304C43.768 62.1994 43.2951 61.5941 43.6558 60.7397L47.3472 51.9971C47.7195 51.1151 48.6714 50.6192 49.0598 51.1075L52.9936 56.0534C53.3865 56.5471 52.9069 57.6484 52.1335 58.0334L50.5091 58.8423L50.614 71.5284Z" fill="#FFD100"/>
<path d="M67.7618 50.2516L66.0077 51.1252L65.9721 64.3739C65.9705 64.9529 65.4941 65.642 64.9093 65.9129L62.2832 67.1297C61.7075 67.3965 61.2418 67.1492 61.2415 66.5777L61.2326 53.5031L59.5335 54.3491C58.7344 54.747 58.2342 54.1231 58.631 53.2248L62.6923 44.0279C63.1022 43.0995 64.1301 42.564 64.5415 43.0675L68.7092 48.1671C69.1252 48.6761 68.5971 49.8358 67.7618 50.2516Z" fill="#FFD100"/>
<path d="M70.6607 67.8913C70.6588 68.1823 70.4151 68.5273 70.1165 68.662L42.3011 81.2045C42.0416 81.3216 41.8281 81.1989 41.8243 80.9305L41.803 79.4714C41.7991 79.2024 42.0064 78.888 42.2664 78.7692L70.1314 66.0284C70.4304 65.8917 70.6719 66.0172 70.67 66.309L70.6607 67.8913Z" fill="#FFD100"/>
<path d="M110.3 34.5L109.775 43.425C110.025 43.275 111.025 43.175 112.775 43.125C114.525 43.025 115.675 43.025 116.225 43.125L119 44.4C119.7 44.85 120.525 45.625 121.475 46.725C122.075 48.025 121.35 49.025 119.3 49.725C117.35 50.025 116.1 50.175 115.55 50.175L109.625 50.475V53.925C109.925 60.075 110.075 63.65 110.075 64.65C110.325 66.15 110.45 67.05 110.45 67.35V69C110.45 69.95 110.325 70.55 110.075 70.8C109.475 71.55 109.1 71.95 108.95 72C106.9 72.8 104.725 72.3 102.425 70.5L101.225 68.925C101.225 68.725 101.075 67.975 100.775 66.675C100.825 66.525 100.625 65.7 100.175 64.2C100.175 63.9 100.225 63.525 100.325 63.075C100.475 62.625 100.55 62.125 100.55 61.575C100.55 61.025 100.425 60.45 100.175 59.85C100.175 59.2 100.125 58.625 100.025 58.125V57.375C100.125 56.825 100.175 56.25 100.175 55.65C100.225 55 100.3 54.375 100.4 53.775C100.55 53.125 100.575 52.525 100.475 51.975V51.75C99.775 51.4 99.25 51.25 98.9 51.3C98.6 51.35 98.25 51.2 97.85 50.85C97.5 50.45 97.3 50.075 97.25 49.725C97.2 49.375 97.725 48.675 98.825 47.625C98.925 47.425 99.525 47.075 100.625 46.575V45.075L101 40.875C100.85 39.525 100.85 38.5 101 37.8C101.15 37.1 101.175 36.525 101.075 36.075L101.525 34.425C99.025 34.875 97.225 34.975 96.125 34.725C95.175 34.275 94.675 33.55 94.625 32.55C94.575 32.5 94.7 31.775 95 30.375C94.85 29.675 95.45 28.8 96.8 27.75C97.9 27.25 98.95 26.9 99.95 26.7C101.85 26.05 103.55 25.625 105.05 25.425C108 24.925 110.375 24.5 112.175 24.15L115.7 22.875C116.5 22.425 117.05 22.225 117.35 22.275C117.7 22.325 118.2 22.225 118.85 21.975C118.95 21.725 119.525 21.5 120.575 21.3C122.725 20.9 123.975 21.125 124.325 21.975C124.775 22.075 125.375 22.425 126.125 23.025C126.275 23.075 126.85 24.05 127.85 25.95C128 26.35 127.925 26.775 127.625 27.225C127.325 27.625 126.85 27.85 126.2 27.9L124.175 28.65C123.575 28.7 122.725 28.975 121.625 29.475C119.575 30.025 118.425 30.3 118.175 30.3C117.925 30.3 117.675 30.325 117.425 30.375C116.675 30.525 115.875 30.725 115.025 30.975C114.175 31.225 113.45 31.35 112.85 31.35C111.45 31.65 110.675 32 110.525 32.4C110.475 32.5 110.45 32.65 110.45 32.85L110.3 33.75V34.5ZM142.865 49.875C142.515 47.875 141.54 46.95 139.94 47.1C139.04 47.15 138.265 47.75 137.615 48.9C136.715 50.65 136.315 52.925 136.415 55.725C136.565 58.475 136.765 60.475 137.015 61.725C137.315 62.925 137.815 63.975 138.515 64.875C138.915 65.575 139.515 65.9 140.315 65.85C141.715 65.85 142.74 64.675 143.39 62.325L143.99 60.525C144.24 60.275 144.29 60.025 144.14 59.775C144.64 58.525 144.915 57.05 144.965 55.35C144.465 55 144.165 54.675 144.065 54.375C143.765 53.525 143.615 52.95 143.615 52.65C143.265 52.4 143.065 51.925 143.015 51.225C142.965 50.525 142.915 50.075 142.865 49.875ZM129.14 56.925L129.44 53.1C129.79 49.65 130.84 46.7 132.59 44.25C134.29 42.2 136.69 41.15 139.79 41.1H140.24C143.14 41.1 145.24 41.725 146.54 42.975C147.94 44.075 148.965 45.275 149.615 46.575C150.315 47.875 150.765 48.825 150.965 49.425C151.165 50.025 151.29 50.9 151.34 52.05C151.44 54.2 151.015 55.425 150.065 55.725C150.765 60.475 150.34 64.25 148.79 67.05C148.29 68.2 147.565 69.45 146.615 70.8C145.915 71.7 144.665 72.2 142.865 72.3C141.065 72.3 139.49 72.2 138.14 72C136.84 71.8 135.39 71.175 133.79 70.125C132.19 69.025 131.065 67.25 130.415 64.8C129.715 62.45 129.29 59.825 129.14 56.925ZM160.326 31.875L160.851 27.45L160.926 25.125C160.926 24.475 161.051 23.975 161.301 23.625L162.051 22.575C163.401 21.525 164.276 20.925 164.676 20.775C165.076 20.625 165.651 20.65 166.401 20.85C167.201 21 167.676 21.15 167.826 21.3L168.651 21.975C169.101 22.225 169.326 22.625 169.326 23.175C169.576 23.475 169.651 23.7 169.551 23.85C169.251 24.2 168.751 27.15 168.051 32.7L167.451 42.9L167.076 44.925C167.076 45.575 167.101 45.95 167.151 46.05V47.4C167.051 48.4 166.951 49.025 166.851 49.275C166.851 49.525 166.801 49.8 166.701 50.1C166.801 50.2 166.851 50.6 166.851 51.3C166.851 51.95 166.776 52.35 166.626 52.5C166.526 53.3 166.476 54.075 166.476 54.825C166.476 55.525 166.526 56.275 166.626 57.075C166.776 57.825 166.826 58.575 166.776 59.325L167.076 62.175V63.3C167.176 64.2 167.226 64.925 167.226 65.475L167.601 69.375L167.901 71.4C168.051 72.25 167.976 73.075 167.676 73.875C167.426 74.675 167.026 75.175 166.476 75.375C164.926 76.025 163.226 75.6 161.376 74.1H160.776C160.426 73.7 160.151 73.15 159.951 72.45C159.551 72.25 159.376 71.9 159.426 71.4C159.476 70.9 159.376 70.45 159.126 70.05C158.876 69.65 158.751 69.3 158.751 69C158.751 68.35 158.701 67.775 158.601 67.275L158.676 66.675C158.526 66.525 158.451 66.3 158.451 66L158.301 64.65V64.05C158.301 63.65 158.276 63.375 158.226 63.225C158.226 63.075 158.301 62.825 158.451 62.475C158.301 62.275 158.276 61.55 158.376 60.3C158.676 56.45 158.826 53.8 158.826 52.35L158.901 50.55V48.375C158.951 47.175 158.976 45.65 158.976 43.8C159.026 41.95 159.126 40.95 159.276 40.8L159.201 40.125C159.201 38.925 159.376 37.3 159.726 35.25C160.126 33.15 160.326 32.025 160.326 31.875ZM177.668 32.85C177.818 32.4 177.868 31.975 177.818 31.575C177.768 31.175 177.793 30.175 177.893 28.575C178.143 28.125 178.168 27.25 177.968 25.95C177.968 25.2 178.268 24.425 178.868 23.625C179.468 22.775 180.118 22.15 180.818 21.75V21.825C181.018 21.625 181.468 21.475 182.168 21.375C183.868 21.125 185.093 21.65 185.843 22.95C185.643 23.3 185.543 24.425 185.543 26.325V33.975C185.593 35.225 185.618 36.925 185.618 39.075V41.925L185.918 46.8C185.918 48.1 185.993 49.4 186.143 50.7C186.143 53.1 186.193 54.55 186.293 55.05C186.393 55.55 186.443 55.9 186.443 56.1V57.3C186.443 58.4 186.493 59.2 186.593 59.7C186.593 60.2 186.718 60.725 186.968 61.275C186.718 62.025 186.718 62.875 186.968 63.825C187.218 64.425 187.293 65.2 187.193 66.15C187.493 66.75 187.593 67.55 187.493 68.55L187.718 69L187.868 69.675C188.068 70.325 187.968 71.1 187.568 72C187.218 72.85 186.468 73.425 185.318 73.725C184.218 74.075 182.968 73.55 181.568 72.15C181.518 72 181.243 71.775 180.743 71.475C180.143 71.125 179.643 69.95 179.243 67.95C178.993 67.45 178.868 66.925 178.868 66.375C178.318 65.925 178.043 65.25 178.043 64.35V62.7C177.993 61.95 177.893 61.45 177.743 61.2C177.593 61 177.468 60.475 177.368 59.625L177.518 54.6C177.518 52.95 177.468 51.675 177.368 50.775V45.675C177.218 44.025 177.143 42.775 177.143 41.925C177.143 41.025 177.318 39.25 177.668 36.6C177.668 36.4 177.593 36.125 177.443 35.775C177.593 35.025 177.668 34.05 177.668 32.85ZM210.304 53.85L209.929 51.9C209.929 51.75 209.879 51.575 209.779 51.375C209.729 51.175 209.654 50.8 209.554 50.25C209.154 49.95 208.879 49.725 208.729 49.575L208.354 48.975L208.129 48.3C207.879 48.15 207.729 47.95 207.679 47.7C207.679 47.4 207.579 47.175 207.379 47.025C207.229 46.825 207.104 46.65 207.004 46.5C206.904 46.3 206.804 46.175 206.704 46.125C206.254 45.825 205.654 45.8 204.904 46.05C204.154 46.3 203.704 46.65 203.554 47.1C202.704 49 202.279 50.225 202.279 50.775C201.579 53.175 201.379 54.875 201.679 55.875C201.579 57.475 201.779 59.675 202.279 62.475V63.3C202.729 63.9 203.154 64.7 203.554 65.7C204.054 66.35 204.379 66.825 204.529 67.125C204.729 67.375 204.854 67.525 204.904 67.575C205.404 67.925 205.704 68.175 205.804 68.325C206.204 68.125 206.479 67.975 206.629 67.875V67.35C206.879 67.15 207.104 67 207.304 66.9C207.254 66.9 207.429 66.725 207.829 66.375L208.204 66C208.954 64.4 209.329 63.575 209.329 63.525C209.329 63.425 209.304 63.25 209.254 63C209.054 62.55 209.179 62.2 209.629 61.95C209.629 61.95 209.929 61.075 210.529 59.325V58.875C210.629 58.575 210.579 58.35 210.379 58.2V57.675C210.479 57.475 210.529 57.275 210.529 57.075C210.729 56.275 210.804 55.8 210.754 55.65C210.754 55.5 210.779 55.325 210.829 55.125C210.879 54.875 210.954 54.7 211.054 54.6C211.204 54.4 210.954 54.15 210.304 53.85ZM199.654 39.675C200.104 39.675 200.429 39.625 200.629 39.525C200.879 39.375 201.304 39.2 201.904 39C202.554 38.8 204.054 38.8 206.404 39C207.704 39.25 209.154 39.9 210.754 40.95C212.404 41.75 213.729 42.85 214.729 44.25C216.129 47.95 216.904 51.175 217.054 53.925C217.154 58.125 216.754 61.6 215.854 64.35C214.604 67.5 213.779 69.35 213.379 69.9C213.279 70.55 212.879 71.4 212.179 72.45C211.929 72.45 211.729 72.475 211.579 72.525C211.579 72.575 211.429 72.725 211.129 72.975C210.879 73.275 210.504 73.425 210.004 73.425C209.354 73.575 208.954 73.7 208.804 73.8C208.704 73.95 208.454 74.025 208.054 74.025L206.179 74.175H204.154C202.804 74.175 201.729 74 200.929 73.65L198.679 72.15L197.929 71.25C197.779 71.25 197.679 71.2 197.629 71.1C197.629 70.95 197.604 70.825 197.554 70.725C197.104 70.375 196.879 69.975 196.879 69.525C196.329 68.675 196.054 68.075 196.054 67.725C196.054 67.375 195.979 67.125 195.829 66.975C195.829 66.225 195.604 65.125 195.154 63.675L195.004 62.625V61.8C194.954 61.05 194.754 60.175 194.404 59.175C194.504 59.075 194.504 58.8 194.404 58.35C194.404 57.2 194.429 56.425 194.479 56.025L194.254 55.05C194.404 54.75 194.454 54.475 194.404 54.225C194.404 53.975 194.479 53.6 194.629 53.1V52.575L194.929 49.95C194.929 49.6 194.979 49.325 195.079 49.125V48.6C195.179 48.6 195.254 48.35 195.304 47.85L195.679 47.25L195.754 46.65C195.754 46.5 195.729 46.35 195.679 46.2L196.054 45.075C196.054 44.975 196.229 44.675 196.579 44.175C196.579 43.925 196.754 43.55 197.104 43.05C197.104 42.8 197.229 42.5 197.479 42.15C197.479 41.7 197.754 41.125 198.304 40.425C198.804 39.925 199.254 39.675 199.654 39.675ZM237.874 56.55L239.149 51.3C239.149 51.1 239.299 50.7 239.599 50.1C239.949 49.45 240.149 49.05 240.199 48.9C240.499 48.75 240.999 48.7 241.699 48.75C242.799 48.85 243.824 49.375 244.774 50.325C245.174 50.425 245.349 50.8 245.299 51.45C245.449 51.3 245.424 51.625 245.224 52.425C244.924 53.925 244.624 54.9 244.324 55.35C244.074 56.6 243.949 58.375 243.949 60.675C243.849 62.325 243.974 63.725 244.324 64.875C244.324 66.275 244.574 67.35 245.074 68.1L245.674 66.225C245.674 65.475 245.824 64.625 246.124 63.675C246.124 63.525 246.199 63.025 246.349 62.175C246.549 61.325 246.699 60.625 246.799 60.075C246.899 59.475 246.999 59.025 247.099 58.725C247.449 57.675 247.774 56.725 248.074 55.875C248.174 55.175 248.299 54.575 248.449 54.075C248.599 53.575 248.724 53.075 248.824 52.575C249.524 50.925 249.874 49.625 249.874 48.675C250.274 46.575 250.724 45.125 251.224 44.325C251.724 43.525 252.374 43.125 253.174 43.125C253.974 43.125 254.474 43.15 254.674 43.2C255.274 43.1 255.899 43.55 256.549 44.55C256.849 45.2 257.049 45.7 257.149 46.05C257.099 46.3 257.049 46.825 256.999 47.625C256.949 48.425 256.824 49.275 256.624 50.175C256.524 51.275 256.399 52 256.249 52.35C255.799 53.4 255.499 54.625 255.349 56.025C255.249 57.375 255.099 58.3 254.899 58.8C254.449 59.6 254.149 60.625 253.999 61.875C253.899 63.075 253.624 64.175 253.174 65.175C252.774 66.125 252.524 67 252.424 67.8L251.824 68.775C250.674 71.775 249.324 73.575 247.774 74.175H246.349C245.799 74.175 245.074 74.05 244.174 73.8C244.174 73.75 243.874 73.575 243.274 73.275C241.924 72.075 241.049 71.2 240.649 70.65C239.799 69.15 239.299 68 239.149 67.2C238.349 69.25 237.574 71.05 236.824 72.6C236.624 72.8 236.099 73.875 235.249 75.825C234.899 76.325 234.249 76.675 233.299 76.875L231.424 76.425C230.724 76.425 230.049 76.275 229.399 75.975L227.449 75.375C227.299 75.625 226.999 75.6 226.549 75.3C226.099 75 225.674 74.6 225.274 74.1L224.974 73.275C224.524 73.275 224.299 72.875 224.299 72.075C224.299 72.025 224.199 71.625 223.999 70.875C223.849 70.125 223.899 69.6 224.149 69.3C224.199 68.4 224.224 66.95 224.224 64.95C224.424 64.3 224.524 63.25 224.524 61.8L225.124 54.45L225.499 51.45C225.499 51.7 225.524 51.675 225.574 51.375C225.624 51.025 225.699 50.675 225.799 50.325C225.799 49.325 226.024 48.375 226.474 47.475C227.024 45.325 227.299 44.25 227.299 44.25C227.849 42.2 228.624 41.1 229.624 40.95C230.724 41.05 231.674 41.275 232.474 41.625C233.774 42.225 234.299 43.35 234.049 45C233.499 48.1 233.049 51.9 232.699 56.4C232.449 58.55 232.299 59.7 232.249 59.85V67.65L232.924 67.875C233.324 67.175 233.649 66.5 233.899 65.85C234.149 65.15 234.424 64.4 234.724 63.6C235.024 62.75 235.649 61.475 236.599 59.775L237.874 56.55Z" fill="#0055A4"/>
<path d="M391.675 49.95C391.925 48 392 46.95 391.9 46.8C391.65 46.9 391.35 47.175 391 47.625L388.525 50.4C385.925 53.65 384.625 55.575 384.625 56.175C384.625 56.275 384.45 56.675 384.1 57.375L384.175 58.575L384.025 61.8V62.625C384.025 64.775 384.1 66.325 384.25 67.275C384.3 67.125 384.725 66.8 385.525 66.3L386.8 64.575C388.1 62.975 388.925 61.825 389.275 61.125C390.375 57.775 390.925 55.875 390.925 55.425C390.925 54.725 391.125 53.725 391.525 52.425C391.525 51.975 391.575 51.45 391.675 50.85V49.95ZM375.625 48.75L375.925 45.3C376.075 44.9 376.1 44.375 376 43.725L376.525 40.65C376.525 40.2 376.5 39.725 376.45 39.225C376.4 38.675 376.425 38.3 376.525 38.1C376.725 37.7 377.25 37.35 378.1 37.05H377.8C378.3 36.75 379 36.725 379.9 36.975C380.8 37.225 381.55 37.45 382.15 37.65C382.5 38.1 382.95 38.6 383.5 39.15L383.575 41.55C383.575 42.8 383.65 44.1 383.8 45.45C383.75 46 383.75 46.35 383.8 46.5L385.075 45.15C385.125 45.05 385.675 44.5 386.725 43.5C387.825 42.5 388.525 41.875 388.825 41.625C388.825 41.375 389.125 41.175 389.725 41.025C391.025 40.725 392.125 40.725 393.025 41.025C393.925 41.275 394.425 41.4 394.525 41.4L397.3 42.6C397.3 42.8 397.55 42.975 398.05 43.125L398.725 43.5C398.975 43.5 399.3 43.675 399.7 44.025C400.3 44.125 400.525 44.55 400.375 45.3C400.375 45.5 400.45 45.7 400.6 45.9V47.7C400.6 48.5 400.35 49.925 399.85 51.975C399.4 53.975 399.1 55.15 398.95 55.5C398.85 55.85 398.7 56.3 398.5 56.85C398.35 57.4 398.175 57.925 397.975 58.425C397.725 59.275 397.225 60.45 396.475 61.95C395.725 63.4 394.975 64.55 394.225 65.4C392.475 67.85 390.525 69.8 388.375 71.25C386.025 72.15 384.55 72.675 383.95 72.825C383.8 72.825 383.8 73.725 383.95 75.525V80.925L384.175 84.225L384.25 87.6C384.35 89.25 384.3 90.175 384.1 90.375L383.2 91.125C382.55 91.375 381.975 91.4 381.475 91.2C380.475 90.9 379.875 90.675 379.675 90.525C379.475 90.525 379.15 90.325 378.7 89.925L377.875 89.625C377.175 89.725 376.75 89.55 376.6 89.1C376.1 88.7 375.85 88.35 375.85 88.05L374.725 86.4C374.425 85.65 374.275 84.95 374.275 84.3C373.975 83.2 373.875 82.35 373.975 81.75L373.825 78.9V74.925C373.825 73.575 373.775 72.7 373.675 72.3C373.575 72 373.625 69.35 373.825 64.35C373.975 63.35 374.05 62.725 374.05 62.475L375.175 53.25L375.4 50.7V50.1C375.55 49.5 375.625 49.05 375.625 48.75ZM420.516 50.475C420.466 49.375 420.216 48.55 419.766 48C419.316 47.4 418.491 47.05 417.291 46.95C416.941 47.2 416.466 48.05 415.866 49.5C415.316 50.9 414.966 52.4 414.816 54C414.316 56.4 414.066 58.8 414.066 61.2C414.116 63.65 414.516 65.45 415.266 66.6C415.366 66.8 415.466 66.875 415.566 66.825C415.816 66.825 416.216 66.325 416.766 65.325C419.416 60.525 420.666 55.575 420.516 50.475ZM422.841 64.8L421.716 67.725C421.716 67.825 420.991 68.9 419.541 70.95C419.091 71.9 418.241 72.425 416.991 72.525C415.791 72.625 414.616 72.5 413.466 72.15C411.916 71.6 410.741 70.95 409.941 70.2C409.141 69.45 408.341 68.2 407.541 66.45C406.791 64.65 406.391 63.175 406.341 62.025C406.091 60.375 405.966 59.325 405.966 58.875V57.075C405.966 55.275 406.041 54.225 406.191 53.925C406.241 53.725 406.366 53.2 406.566 52.35C406.816 50.25 407.416 48.25 408.366 46.35C410.216 42.7 412.116 40.825 414.066 40.725H414.441C414.541 40.775 414.691 40.8 414.891 40.8H415.866C417.616 40.95 418.691 41.1 419.091 41.25C419.841 41.45 420.491 41.55 421.041 41.55L422.991 41.925C423.591 41.875 424.366 42 425.316 42.3C426.316 42.6 426.841 42.825 426.891 42.975C426.991 43.125 427.141 43.675 427.341 44.625C427.541 45.575 427.666 46.275 427.716 46.725C427.816 47.125 427.891 47.55 427.941 48C428.341 51.65 428.991 55.05 429.891 58.2C429.941 58.35 429.991 58.575 430.041 58.875C430.091 59.175 430.266 59.775 430.566 60.675C430.866 61.525 431.091 62.25 431.241 62.85C431.391 63.45 431.666 64.25 432.066 65.25C432.366 66 432.816 66.875 433.416 67.875C434.516 69.425 433.941 70.625 431.691 71.475C431.391 71.575 430.866 71.625 430.116 71.625C429.966 71.625 429.491 71.375 428.691 70.875C428.191 70.875 427.716 70.6 427.266 70.05L426.666 69.9C426.316 69.55 426.016 69.375 425.766 69.375C425.666 69.275 424.766 67.25 423.066 63.3C422.916 63.85 422.841 64.35 422.841 64.8ZM438.941 44.7C438.591 42.9 438.966 41.65 440.066 40.95C440.616 40.65 441.041 40.525 441.341 40.575C441.691 40.575 442.766 40.85 444.566 41.4C444.816 41.4 444.991 41.45 445.091 41.55C445.191 41.55 445.341 41.6 445.541 41.7C445.991 41.7 446.216 41.8 446.216 42C446.666 42.75 446.941 43.625 447.041 44.625C447.241 46.675 447.491 48.35 447.791 49.65C447.791 49.6 447.816 49.525 447.866 49.425C448.816 48.225 449.316 47.525 449.366 47.325C449.266 47.225 449.441 46.95 449.891 46.5C450.241 45.4 450.491 44.725 450.641 44.475C450.641 44.225 450.866 43.825 451.316 43.275C451.666 42.575 451.966 42.125 452.216 41.925C452.466 41.675 452.666 41.475 452.816 41.325C453.566 40.575 454.566 40.3 455.816 40.5C455.966 40.5 456.241 40.475 456.641 40.425C457.441 40.325 457.916 40.4 458.066 40.65C459.616 40.65 460.216 42.55 459.866 46.35C459.666 48.05 459.366 49.025 458.966 49.275C458.566 49.525 457.791 49.8 456.641 50.1C455.541 50.4 454.766 50.65 454.316 50.85C452.566 51.6 451.441 52.75 450.941 54.3C450.891 54.85 450.741 55.425 450.491 56.025C450.391 56.825 450.316 57.3 450.266 57.45C450.266 57.6 450.266 57.9 450.266 58.35C450.266 59.35 450.116 60.3 449.816 61.2C449.666 62.15 449.591 63.675 449.591 65.775C449.641 67.825 449.591 69.275 449.441 70.125C449.341 70.975 449.266 71.4 449.216 71.4C449.266 71.65 449.291 71.825 449.291 71.925V72.375C449.141 72.775 448.666 73.375 447.866 74.175L446.741 74.25C445.591 74.25 444.966 74.175 444.866 74.025C444.366 73.825 443.991 73.525 443.741 73.125C443.441 73.075 443.291 72.875 443.291 72.525C442.841 72.425 442.566 72.125 442.466 71.625C441.916 71.025 441.641 70.625 441.641 70.425C441.091 68.525 440.891 66.875 441.041 65.475V61.65C441.141 61.35 441.191 61.175 441.191 61.125V60.45C441.491 60.15 441.541 59.95 441.341 59.85V59.25C441.391 59.2 441.416 59.025 441.416 58.725C441.466 58.425 441.516 57.9 441.566 57.15C441.666 56.5 441.491 54.3 441.041 50.55C440.841 50.35 440.491 49.325 439.991 47.475C439.991 47.175 439.891 46.825 439.691 46.425V45.75C439.491 45.15 439.316 44.85 439.166 44.85C439.016 44.8 438.941 44.75 438.941 44.7ZM477.594 74.475L476.469 74.4C475.869 74.45 475.094 74.25 474.144 73.8C473.444 73.8 472.869 73.675 472.419 73.425C471.919 73.325 471.519 73.175 471.219 72.975C470.969 72.775 470.619 72.575 470.169 72.375C469.769 72.225 469.519 72.075 469.419 71.925L468.219 70.5C467.869 69.8 467.544 69.225 467.244 68.775C466.994 68.325 466.894 68.05 466.944 67.95C466.794 67.8 466.519 67.375 466.119 66.675C465.619 63.525 465.319 61.475 465.219 60.525C465.069 58.275 465.269 56.425 465.819 54.975C466.369 53.525 466.644 52.55 466.644 52.05C466.644 50.8 466.894 49.925 467.394 49.425L468.519 46.95L469.419 45.975C469.419 45.925 469.969 45.425 471.069 44.475C471.169 44.475 471.419 44.3 471.819 43.95C472.269 43.55 473.069 43.175 474.219 42.825C475.419 42.425 476.119 42.225 476.319 42.225H477.819C477.869 42.225 478.369 42.3 479.319 42.45C480.269 42.6 480.969 42.7 481.419 42.75C482.169 42.85 483.419 43.225 485.169 43.875C486.169 44.825 487.044 46.125 487.794 47.775C488.244 50.425 488.294 52.225 487.944 53.175L487.494 54.6C487.444 54.9 487.119 55.25 486.519 55.65C485.269 56.6 483.919 57.025 482.469 56.925C481.119 56.675 480.419 56.275 480.369 55.725C480.269 55.475 480.444 54.875 480.894 53.925C481.344 52.925 481.569 51.55 481.569 49.8C481.219 48.9 480.769 48.4 480.219 48.3C479.169 48.25 478.144 48.975 477.144 50.475C476.844 50.875 476.619 51.225 476.469 51.525C476.369 51.775 476.244 52.025 476.094 52.275C475.994 52.475 475.969 52.575 476.019 52.575C475.719 52.925 475.469 53.325 475.269 53.775C475.219 54.125 475.194 54.425 475.194 54.675C475.194 54.925 475.119 55.275 474.969 55.725C474.219 58.525 473.844 60.7 473.844 62.25C473.844 63.8 474.094 65.175 474.594 66.375C474.694 67.025 474.819 67.475 474.969 67.725C475.119 67.975 475.394 68.275 475.794 68.625C477.344 69.975 479.244 69.975 481.494 68.625C481.844 68.375 482.219 68 482.619 67.5C483.019 66.95 483.369 66.6 483.669 66.45C484.119 66.45 484.594 66.65 485.094 67.05C485.844 67.25 486.144 67.925 485.994 69.075C485.694 69.825 485.444 70.35 485.244 70.65C484.144 73.2 481.794 74.475 478.194 74.475H477.594ZM507.657 44.475C507.557 44.225 507.207 44.125 506.607 44.175C506.057 44.225 505.632 44.525 505.332 45.075C503.282 48.325 502.182 51.8 502.032 55.5C503.732 55.9 505.182 55.15 506.382 53.25C507.932 48.35 508.357 45.425 507.657 44.475ZM501.807 74.25L501.057 74.1L500.007 73.05C499.707 73.05 499.482 72.925 499.332 72.675C498.782 72.025 497.782 70.725 496.332 68.775L495.207 64.65C495.207 63.85 495.057 63.15 494.757 62.55C494.257 60.3 493.957 59.025 493.857 58.725C493.757 58.375 493.682 57.45 493.632 55.95C493.632 54.45 493.707 53.35 493.857 52.65C494.007 51.7 494.932 49.35 496.632 45.6C497.082 45.15 497.357 44.55 497.457 43.8L498.657 42.075C499.757 40.775 500.932 39.825 502.182 39.225C502.182 39.125 503.032 38.875 504.732 38.475C505.082 38.425 505.882 38.55 507.132 38.85C510.132 39.55 512.007 40.425 512.757 41.475L512.982 41.85C513.932 43.2 514.482 45.275 514.632 48.075C514.482 49.325 514.357 50.375 514.257 51.225C514.157 52.075 513.607 53.625 512.607 55.875C511.857 57.275 511.132 58.4 510.432 59.25C509.332 60.05 508.582 60.45 508.182 60.45C507.982 60.55 507.557 60.6 506.907 60.6H505.182C505.032 60.55 504.707 60.525 504.207 60.525C503.707 60.525 502.982 60.4 502.032 60.15C502.032 61.25 502.332 62.825 502.932 64.875C503.582 66.875 504.107 68.1 504.507 68.55C505.557 69.35 506.382 69.875 506.982 70.125C507.582 70.375 508.382 70.425 509.382 70.275C510.382 70.075 511.107 69.725 511.557 69.225L513.507 66.825C514.757 65.125 516.032 64.975 517.332 66.375C517.932 67.025 518.157 67.675 518.007 68.325C517.907 68.925 517.407 70.15 516.507 72C515.757 73.2 514.957 74.2 514.107 75C512.557 75.8 511.632 76.2 511.332 76.2C510.882 76.25 510.182 76.175 509.232 75.975C508.732 76.225 507.882 76.2 506.682 75.9C506.682 75.8 506.532 75.725 506.232 75.675C505.982 75.675 505.632 75.6 505.182 75.45L505.332 75.375C505.232 75.375 504.932 75.375 504.432 75.375L502.332 74.25H501.807ZM524.605 31.875L525.13 27.45L525.205 25.125C525.205 24.475 525.33 23.975 525.58 23.625L526.33 22.575C527.68 21.525 528.555 20.925 528.955 20.775C529.355 20.625 529.93 20.65 530.68 20.85C531.48 21 531.955 21.15 532.105 21.3L532.93 21.975C533.38 22.225 533.605 22.625 533.605 23.175C533.855 23.475 533.93 23.7 533.83 23.85C533.53 24.2 533.03 27.15 532.33 32.7L531.73 42.9L531.355 44.925C531.355 45.575 531.38 45.95 531.43 46.05V47.4C531.33 48.4 531.23 49.025 531.13 49.275C531.13 49.525 531.08 49.8 530.98 50.1C531.08 50.2 531.13 50.6 531.13 51.3C531.13 51.95 531.055 52.35 530.905 52.5C530.805 53.3 530.755 54.075 530.755 54.825C530.755 55.525 530.805 56.275 530.905 57.075C531.055 57.825 531.105 58.575 531.055 59.325L531.355 62.175V63.3C531.455 64.2 531.505 64.925 531.505 65.475L531.88 69.375L532.18 71.4C532.33 72.25 532.255 73.075 531.955 73.875C531.705 74.675 531.305 75.175 530.755 75.375C529.205 76.025 527.505 75.6 525.655 74.1H525.055C524.705 73.7 524.43 73.15 524.23 72.45C523.83 72.25 523.655 71.9 523.705 71.4C523.755 70.9 523.655 70.45 523.405 70.05C523.155 69.65 523.03 69.3 523.03 69C523.03 68.35 522.98 67.775 522.88 67.275L522.955 66.675C522.805 66.525 522.73 66.3 522.73 66L522.58 64.65V64.05C522.58 63.65 522.555 63.375 522.505 63.225C522.505 63.075 522.58 62.825 522.73 62.475C522.58 62.275 522.555 61.55 522.655 60.3C522.955 56.45 523.105 53.8 523.105 52.35L523.18 50.55V48.375C523.23 47.175 523.255 45.65 523.255 43.8C523.305 41.95 523.405 40.95 523.555 40.8L523.48 40.125C523.48 38.925 523.655 37.3 524.005 35.25C524.405 33.15 524.605 32.025 524.605 31.875ZM540.222 50.625C540.172 50.025 540.197 48.875 540.297 47.175L540.822 44.625L542.322 41.4L543.522 39.9C543.522 39.5 544.822 38.95 547.422 38.25H547.497C548.047 38.2 548.897 38.25 550.047 38.4C551.247 38.55 552.397 39.05 553.497 39.9C554.597 40.7 555.347 41.375 555.747 41.925C556.797 44.025 557.247 45.975 557.097 47.775C557.097 48.275 556.847 48.875 556.347 49.575C556.297 49.675 555.922 49.825 555.222 50.025C554.522 50.225 553.947 50.25 553.497 50.1C553.047 49.9 552.522 49.6 551.922 49.2C551.322 48.8 551.047 48.175 551.097 47.325C550.647 46.825 550.547 46.175 550.797 45.375C550.897 44.775 550.822 44.325 550.572 44.025L549.672 43.65C549.372 43.75 549.072 44.2 548.772 45C548.522 45.8 548.397 46.775 548.397 47.925C548.397 50.025 548.922 51.925 549.972 53.625C550.322 54.175 550.922 54.825 551.772 55.575L553.122 57.225L555.072 59.025L556.497 60.975C556.847 61.325 557.322 62.1 557.922 63.3C558.572 64.45 558.897 65.5 558.897 66.45C558.897 67.35 558.622 68.5 558.072 69.9L557.397 70.875C557.397 70.975 557.122 71.3 556.572 71.85C555.072 73.35 553.447 74.275 551.697 74.625H551.172C549.572 74.825 547.997 74.8 546.447 74.55L544.122 73.95C543.872 73.95 543.597 73.85 543.297 73.65C542.997 73.5 542.722 73.375 542.472 73.275C541.322 72.525 540.622 71.925 540.372 71.475C540.122 71.325 539.947 70.625 539.847 69.375C539.497 68.625 539.572 67.6 540.072 66.3C540.072 65.55 540.147 64.975 540.297 64.575C541.247 63.475 542.472 63.225 543.972 63.825C544.472 64.025 544.722 64.425 544.722 65.025C544.722 65.175 544.797 65.7 544.947 66.6C545.147 67.45 545.447 68.25 545.847 69C546.247 69.75 546.797 70.125 547.497 70.125C548.197 70.125 548.922 69.85 549.672 69.3C550.472 67.75 550.872 66.9 550.872 66.75L551.022 65.7C551.122 64.95 550.897 64.175 550.347 63.375C550.197 62.775 549.847 62.175 549.297 61.575L548.172 59.925L547.047 58.875C546.847 58.825 546.222 58.425 545.172 57.675C545.122 57.525 544.847 57.175 544.347 56.625C543.847 56.075 543.372 55.4 542.922 54.6C542.472 53.75 541.897 53 541.197 52.35C541.147 52 540.822 51.425 540.222 50.625Z" fill="#0055A4"/>
<path d="M282.875 65.625C282.675 65.425 282.475 64.95 282.275 64.2C282.125 63.45 282.05 62.75 282.05 62.1C282.1 61.45 282.05 60.6 281.9 59.55C281.95 59.35 281.975 58.8 281.975 57.9C281.975 56.95 281.925 56.025 281.825 55.125C281.725 54.175 281.675 53.425 281.675 52.875C281.725 52.275 281.725 51.625 281.675 50.925C281.725 50.575 281.825 49.975 281.975 49.125C281.925 49.075 281.9 48.45 281.9 47.25C281.9 46 282 45 282.2 44.25C282.2 42.85 282.325 41.325 282.575 39.675V38.4C282.925 36.25 283.15 34.725 283.25 33.825C283.3 32.725 283.45 31.825 283.7 31.125C283.5 30.475 283.725 29.075 284.375 26.925C284.575 26.425 285.25 25.95 286.4 25.5L286.325 25.575C286.625 25.375 287.25 25.3 288.2 25.35C289.15 25.4 289.775 25.5 290.075 25.65C290.425 25.8 291.025 26 291.875 26.25C293.025 26.55 293.325 29.325 292.775 34.575C292.775 35.075 292.625 36.325 292.325 38.325C292.325 39.325 292.25 40.35 292.1 41.4V42.825L291.95 44.7C291.95 45.15 291.925 45.575 291.875 45.975C291.875 46.375 291.85 47 291.8 47.85C291.8 48.65 291.725 49.275 291.575 49.725C291.475 50.175 291.425 50.475 291.425 50.625C291.275 50.775 291.175 51.2 291.125 51.9C291.075 52.75 290.925 53.775 290.675 54.975C290.425 55.425 290.525 58.05 290.975 62.85C291.075 64.35 291.425 65.35 292.025 65.85C292.625 66.3 293.45 66.15 294.5 65.4C294.8 65.1 294.975 64.9 295.025 64.8L295.325 63.675C295.525 63.675 295.8 63.175 296.15 62.175L296.975 60.675L297.2 59.775C297.2 59.375 297.4 58.825 297.8 58.125C298.25 57.375 298.525 56.875 298.625 56.625L299.75 52.875L300.2 51C300.2 50.7 300.4 50.15 300.8 49.35C300.8 49.1 300.925 48.45 301.175 47.4C301.175 46.45 301.15 45.775 301.1 45.375C301.15 45.375 301.175 45.225 301.175 44.925C301.225 44.625 301.35 44.15 301.55 43.5C301.8 42.8 301.925 41.95 301.925 40.95C301.925 40.8 302.15 40.3 302.6 39.45C302.6 38.15 303.075 36.425 304.025 34.275C303.975 34.325 303.975 34.275 304.025 34.125C304.075 33.925 304.1 33.775 304.1 33.675C304.15 33.525 304.2 33.375 304.25 33.225C304.3 33.075 304.325 32.925 304.325 32.775C304.175 32.475 304.2 32.1 304.4 31.65C304.6 31.2 304.775 30.725 304.925 30.225C305.075 29.725 305.25 29.225 305.45 28.725L307.25 27.525C307.5 27.525 307.825 27.5 308.225 27.45C308.675 27.35 309.675 27.35 311.225 27.45C311.825 27.65 312.3 28.2 312.65 29.1C313.2 29.95 313.275 31.2 312.875 32.85C312.875 33.2 312.675 34.425 312.275 36.525C312.275 36.875 312.125 37.7 311.825 39C311.525 40.3 311.3 41.475 311.15 42.525C311.05 43.525 310.925 44.2 310.775 44.55C310.675 45.25 310.65 45.825 310.7 46.275L310.25 49.5C310.25 50.3 310.175 51.5 310.025 53.1C309.875 54.7 309.7 55.95 309.5 56.85C309.35 57.7 309.6 59.425 310.25 62.025L311.15 66.9C311.15 67.65 311.275 68.3 311.525 68.85C311.775 69.35 311.9 69.6 311.9 69.6V69.975C313.3 72.725 312.825 74.325 310.475 74.775C309.325 75.075 308.625 75.275 308.375 75.375C308.125 75.525 307.575 75.475 306.725 75.225C305.925 75.025 305.175 74.575 304.475 73.875C304.275 73.575 304 72.675 303.65 71.175C303.5 70.875 303.325 70 303.125 68.55C302.975 68.4 302.8 67.825 302.6 66.825C302.7 66.625 302.6 66.3 302.3 65.85C301.95 66.55 301.7 67 301.55 67.2C301.2 67.75 300.975 68.15 300.875 68.4C300.825 68.6 300.65 69.1 300.35 69.9L299 72.3C297.95 74.25 296.65 75.125 295.1 74.925C295.05 74.875 294.55 74.825 293.6 74.775C293.4 74.575 292.7 74.4 291.5 74.25C291.3 74.2 291.05 74.15 290.75 74.1C290.45 74.1 290.05 74.075 289.55 74.025C289.45 73.875 289.075 73.6 288.425 73.2C286.925 72.65 285.9 71.9 285.35 70.95C284.9 70.85 284.575 70.5 284.375 69.9C284.275 69.6 283.95 68.9 283.4 67.8L282.875 65.625ZM336.036 41.625L335.736 40.35C335.736 37 335.361 34.675 334.611 33.375C334.511 33.325 334.436 33.3 334.386 33.3C334.136 33.3 333.961 33.6 333.861 34.2C333.261 35.4 332.711 37.05 332.211 39.15C332.011 39.35 331.786 40.1 331.536 41.4C330.786 44.75 330.211 46.825 329.811 47.625L329.661 48.75C329.311 49.9 329.286 50.65 329.586 51C329.586 50.8 330.636 50.475 332.736 50.025C334.836 49.575 335.936 49.325 336.036 49.275C336.136 49.225 336.161 48.975 336.111 48.525C336.111 48.075 336.261 47.375 336.561 46.425C336.661 46.375 336.586 46.2 336.336 45.9C336.136 45.55 336.061 45.025 336.111 44.325C336.011 44.025 335.961 43.6 335.961 43.05C336.011 42.5 336.036 42.025 336.036 41.625ZM343.836 42.15L343.986 43.275C344.286 43.375 344.386 43.575 344.286 43.875C344.186 44.175 344.161 44.6 344.211 45.15C344.361 47.15 344.611 48.675 344.961 49.725C344.961 50.325 345.061 51.1 345.261 52.05C345.511 52.95 345.611 53.425 345.561 53.475C345.511 53.525 345.486 53.725 345.486 54.075V54.825C345.186 54.175 345.161 54.675 345.411 56.325C345.611 56.725 345.761 57.35 345.861 58.2C346.011 59.05 346.311 60.55 346.761 62.7C347.711 66.45 348.186 68.525 348.186 68.925C348.186 69.275 348.036 69.875 347.736 70.725C347.436 71.525 346.986 72.1 346.386 72.45L343.011 72.675C342.261 72.475 341.336 71.9 340.236 70.95C339.586 70.3 339.186 69.575 339.036 68.775L338.136 66.225C338.086 65.925 338.061 65.475 338.061 64.875C338.011 64.825 337.936 64.5 337.836 63.9C337.936 63.65 337.811 63.15 337.461 62.4V61.05C337.611 60.8 337.511 60.325 337.161 59.625L336.786 57.225C336.886 57.025 336.586 56.6 335.886 55.95C335.386 56.2 334.736 56.4 333.936 56.55H331.536C330.586 56.55 329.786 56.575 329.136 56.625C328.786 56.625 328.611 57.625 328.611 59.625C328.561 59.775 328.436 60.125 328.236 60.675C328.236 60.925 328.136 61.325 327.936 61.875C327.736 62.425 327.636 62.9 327.636 63.3C327.636 63.65 327.586 63.9 327.486 64.05C327.236 64.55 326.886 65.75 326.436 67.65C325.986 69.5 325.636 70.725 325.386 71.325C325.186 71.925 325.161 72.3 325.311 72.45C325.361 72.6 325.286 72.85 325.086 73.2C324.886 73.55 324.661 73.8 324.411 73.95C323.861 73.95 323.261 73.825 322.611 73.575C321.961 73.325 321.186 73.2 320.286 73.2C319.636 73.1 319.061 72.45 318.561 71.25C318.461 70.9 318.386 70.6 318.336 70.35C318.436 70.2 318.511 69.825 318.561 69.225C318.211 68.975 318.036 68.5 318.036 67.8L318.111 66.75C318.111 66.3 318.236 65.875 318.486 65.475C318.436 65.475 318.536 65.05 318.786 64.2C318.486 64 318.661 62.475 319.311 59.625C319.311 58.925 319.536 57.9 319.986 56.55C320.186 55.65 320.286 55.05 320.286 54.75C320.336 54.3 320.386 54.025 320.436 53.925C320.486 53.775 320.536 53.6 320.586 53.4C321.136 51.9 321.436 50.875 321.486 50.325C321.536 49.725 321.936 48.525 322.686 46.725C322.836 46.425 322.911 45.975 322.911 45.375C322.911 44.775 322.986 44.3 323.136 43.95C323.286 43.6 323.411 43.2 323.511 42.75C323.661 42.3 323.861 41.825 324.111 41.325C323.961 41.175 324.011 40.675 324.261 39.825C324.261 39.525 324.461 38.9 324.861 37.95C325.261 36.95 325.461 36.325 325.461 36.075C325.511 35.775 325.561 35.575 325.611 35.475C325.711 35.325 325.811 35.1 325.911 34.8C326.011 34.5 326.161 34.175 326.361 33.825C326.561 33.475 326.661 33.175 326.661 32.925C326.711 32.675 326.861 32.25 327.111 31.65C327.111 31.3 327.186 30.85 327.336 30.3C327.486 30.15 327.811 29.675 328.311 28.875C328.311 28.575 328.736 28.1 329.586 27.45C330.486 26.8 331.036 26.35 331.236 26.1L335.136 25.5C335.186 25.1 335.486 24.5 336.036 23.7C337.586 22.95 339.161 22.7 340.761 22.95C340.811 22.95 340.911 22.975 341.061 23.025C341.261 23.075 341.486 23.125 341.736 23.175C342.036 23.225 342.361 23.3 342.711 23.4C343.111 23.5 343.311 23.85 343.311 24.45L343.236 33.375C343.336 33.775 343.411 34.825 343.461 36.525C343.561 38.175 343.711 39.375 343.911 40.125C343.911 41.275 343.886 41.95 343.836 42.15Z" fill="#FFD100"/>
</svg>
