<svg width="195" height="32" viewBox="0 0 195 32" fill="none" xmlns="http://www.w3.org/2000/svg">
<path d="M45.1 11.5L44.925 14.475C45.0083 14.425 45.3417 14.3917 45.925 14.375C46.5083 14.3417 46.8917 14.3417 47.075 14.375L48 14.8C48.2333 14.95 48.5083 15.2083 48.825 15.575C49.025 16.0083 48.7833 16.3417 48.1 16.575C47.45 16.675 47.0333 16.725 46.85 16.725L44.875 16.825V17.975C44.975 20.025 45.025 21.2167 45.025 21.55C45.1083 22.05 45.15 22.35 45.15 22.45V23C45.15 23.3167 45.1083 23.5167 45.025 23.6C44.825 23.85 44.7 23.9833 44.65 24C43.9667 24.2667 43.2417 24.1 42.475 23.5L42.075 22.975C42.075 22.9083 42.025 22.6583 41.925 22.225C41.9417 22.175 41.875 21.9 41.725 21.4C41.725 21.3 41.7417 21.175 41.775 21.025C41.825 20.875 41.85 20.7083 41.85 20.525C41.85 20.3417 41.8083 20.15 41.725 19.95C41.725 19.7333 41.7083 19.5417 41.675 19.375V19.125C41.7083 18.9417 41.725 18.75 41.725 18.55C41.7417 18.3333 41.7667 18.125 41.8 17.925C41.85 17.7083 41.8583 17.5083 41.825 17.325V17.25C41.5917 17.1333 41.4167 17.0833 41.3 17.1C41.2 17.1167 41.0833 17.0667 40.95 16.95C40.8333 16.8167 40.7667 16.6917 40.75 16.575C40.7333 16.4583 40.9083 16.225 41.275 15.875C41.3083 15.8083 41.5083 15.6917 41.875 15.525V15.025L42 13.625C41.95 13.175 41.95 12.8333 42 12.6C42.05 12.3667 42.0583 12.175 42.025 12.025L42.175 11.475C41.3417 11.625 40.7417 11.6583 40.375 11.575C40.0583 11.425 39.8917 11.1833 39.875 10.85C39.8583 10.8333 39.9 10.5917 40 10.125C39.95 9.89167 40.15 9.6 40.6 9.25C40.9667 9.08333 41.3167 8.96667 41.65 8.9C42.2833 8.68333 42.85 8.54167 43.35 8.475C44.3333 8.30833 45.125 8.16667 45.725 8.05L46.9 7.625C47.1667 7.475 47.35 7.40833 47.45 7.425C47.5667 7.44167 47.7333 7.40833 47.95 7.325C47.9833 7.24167 48.175 7.16667 48.525 7.1C49.2417 6.96667 49.6583 7.04167 49.775 7.325C49.925 7.35833 50.125 7.475 50.375 7.675C50.425 7.69167 50.6167 8.01667 50.95 8.65C51 8.78333 50.975 8.925 50.875 9.075C50.775 9.20833 50.6167 9.28333 50.4 9.3L49.725 9.55C49.525 9.56667 49.2417 9.65833 48.875 9.825C48.1917 10.0083 47.8083 10.1 47.725 10.1C47.6417 10.1 47.5583 10.1083 47.475 10.125C47.225 10.175 46.9583 10.2417 46.675 10.325C46.3917 10.4083 46.15 10.45 45.95 10.45C45.4833 10.55 45.225 10.6667 45.175 10.8C45.1583 10.8333 45.15 10.8833 45.15 10.95L45.1 11.25V11.5ZM55.9549 16.625C55.8382 15.9583 55.5132 15.65 54.9799 15.7C54.6799 15.7167 54.4215 15.9167 54.2049 16.3C53.9049 16.8833 53.7715 17.6417 53.8049 18.575C53.8549 19.4917 53.9215 20.1583 54.0049 20.575C54.1049 20.975 54.2715 21.325 54.5049 21.625C54.6382 21.8583 54.8382 21.9667 55.1049 21.95C55.5715 21.95 55.9132 21.5583 56.1299 20.775L56.3299 20.175C56.4132 20.0917 56.4299 20.0083 56.3799 19.925C56.5465 19.5083 56.6382 19.0167 56.6549 18.45C56.4882 18.3333 56.3882 18.225 56.3549 18.125C56.2549 17.8417 56.2049 17.65 56.2049 17.55C56.0882 17.4667 56.0215 17.3083 56.0049 17.075C55.9882 16.8417 55.9715 16.6917 55.9549 16.625ZM51.3799 18.975L51.4799 17.7C51.5965 16.55 51.9465 15.5667 52.5299 14.75C53.0965 14.0667 53.8965 13.7167 54.9299 13.7H55.0799C56.0465 13.7 56.7465 13.9083 57.1799 14.325C57.6465 14.6917 57.9882 15.0917 58.2049 15.525C58.4382 15.9583 58.5882 16.275 58.6549 16.475C58.7215 16.675 58.7632 16.9667 58.7799 17.35C58.8132 18.0667 58.6715 18.475 58.3549 18.575C58.5882 20.1583 58.4466 21.4167 57.9299 22.35C57.7632 22.7333 57.5216 23.15 57.2049 23.6C56.9715 23.9 56.5549 24.0667 55.9549 24.1C55.3549 24.1 54.8299 24.0667 54.3799 24C53.9465 23.9333 53.4632 23.725 52.9299 23.375C52.3965 23.0083 52.0215 22.4167 51.8049 21.6C51.5715 20.8167 51.4299 19.9417 51.3799 18.975ZM61.7752 10.625L61.9502 9.15L61.9752 8.375C61.9752 8.15833 62.0169 7.99167 62.1002 7.875L62.3502 7.525C62.8002 7.175 63.0919 6.975 63.2252 6.925C63.3585 6.875 63.5502 6.88333 63.8002 6.95C64.0669 7 64.2252 7.05 64.2752 7.1L64.5502 7.325C64.7002 7.40833 64.7752 7.54167 64.7752 7.725C64.8585 7.825 64.8835 7.9 64.8502 7.95C64.7502 8.06667 64.5835 9.05 64.3502 10.9L64.1502 14.3L64.0252 14.975C64.0252 15.1917 64.0335 15.3167 64.0502 15.35V15.8C64.0169 16.1333 63.9835 16.3417 63.9502 16.425C63.9502 16.5083 63.9335 16.6 63.9002 16.7C63.9335 16.7333 63.9502 16.8667 63.9502 17.1C63.9502 17.3167 63.9252 17.45 63.8752 17.5C63.8419 17.7667 63.8252 18.025 63.8252 18.275C63.8252 18.5083 63.8419 18.7583 63.8752 19.025C63.9252 19.275 63.9419 19.525 63.9252 19.775L64.0252 20.725V21.1C64.0585 21.4 64.0752 21.6417 64.0752 21.825L64.2002 23.125L64.3002 23.8C64.3502 24.0833 64.3252 24.3583 64.2252 24.625C64.1419 24.8917 64.0085 25.0583 63.8252 25.125C63.3085 25.3417 62.7419 25.2 62.1252 24.7H61.9252C61.8085 24.5667 61.7169 24.3833 61.6502 24.15C61.5169 24.0833 61.4585 23.9667 61.4752 23.8C61.4919 23.6333 61.4585 23.4833 61.3752 23.35C61.2919 23.2167 61.2502 23.1 61.2502 23C61.2502 22.7833 61.2335 22.5917 61.2002 22.425L61.2252 22.225C61.1752 22.175 61.1502 22.1 61.1502 22L61.1002 21.55V21.35C61.1002 21.2167 61.0919 21.125 61.0752 21.075C61.0752 21.025 61.1002 20.9417 61.1502 20.825C61.1002 20.7583 61.0919 20.5167 61.1252 20.1C61.2252 18.8167 61.2752 17.9333 61.2752 17.45L61.3002 16.85V16.125C61.3169 15.725 61.3252 15.2167 61.3252 14.6C61.3419 13.9833 61.3752 13.65 61.4252 13.6L61.4002 13.375C61.4002 12.975 61.4585 12.4333 61.5752 11.75C61.7085 11.05 61.7752 10.675 61.7752 10.625ZM67.5561 10.95C67.6061 10.8 67.6227 10.6583 67.6061 10.525C67.5894 10.3917 67.5977 10.0583 67.6311 9.525C67.7144 9.375 67.7227 9.08333 67.6561 8.65C67.6561 8.4 67.7561 8.14167 67.9561 7.875C68.1561 7.59167 68.3727 7.38333 68.6061 7.25V7.275C68.6727 7.20833 68.8227 7.15833 69.0561 7.125C69.6227 7.04167 70.0311 7.21667 70.2811 7.65C70.2144 7.76667 70.1811 8.14167 70.1811 8.775V11.325C70.1977 11.7417 70.2061 12.3083 70.2061 13.025V13.975L70.3061 15.6C70.3061 16.0333 70.3311 16.4667 70.3811 16.9C70.3811 17.7 70.3977 18.1833 70.4311 18.35C70.4644 18.5167 70.4811 18.6333 70.4811 18.7V19.1C70.4811 19.4667 70.4977 19.7333 70.5311 19.9C70.5311 20.0667 70.5727 20.2417 70.6561 20.425C70.5727 20.675 70.5727 20.9583 70.6561 21.275C70.7394 21.475 70.7644 21.7333 70.7311 22.05C70.8311 22.25 70.8644 22.5167 70.8311 22.85L70.9061 23L70.9561 23.225C71.0227 23.4417 70.9894 23.7 70.8561 24C70.7394 24.2833 70.4894 24.475 70.1061 24.575C69.7394 24.6917 69.3227 24.5167 68.8561 24.05C68.8394 24 68.7477 23.925 68.5811 23.825C68.3811 23.7083 68.2144 23.3167 68.0811 22.65C67.9977 22.4833 67.9561 22.3083 67.9561 22.125C67.7727 21.975 67.6811 21.75 67.6811 21.45V20.9C67.6644 20.65 67.6311 20.4833 67.5811 20.4C67.5311 20.3333 67.4894 20.1583 67.4561 19.875L67.5061 18.2C67.5061 17.65 67.4894 17.225 67.4561 16.925V15.225C67.4061 14.675 67.3811 14.2583 67.3811 13.975C67.3811 13.675 67.4394 13.0833 67.5561 12.2C67.5561 12.1333 67.5311 12.0417 67.4811 11.925C67.5311 11.675 67.5561 11.35 67.5561 10.95ZM78.4346 17.95L78.3096 17.3C78.3096 17.25 78.2929 17.1917 78.2596 17.125C78.2429 17.0583 78.2179 16.9333 78.1846 16.75C78.0512 16.65 77.9596 16.575 77.9096 16.525L77.7846 16.325L77.7096 16.1C77.6262 16.05 77.5762 15.9833 77.5596 15.9C77.5596 15.8 77.5262 15.725 77.4596 15.675C77.4096 15.6083 77.3679 15.55 77.3346 15.5C77.3012 15.4333 77.2679 15.3917 77.2346 15.375C77.0846 15.275 76.8846 15.2667 76.6346 15.35C76.3846 15.4333 76.2346 15.55 76.1846 15.7C75.9012 16.3333 75.7596 16.7417 75.7596 16.925C75.5262 17.725 75.4596 18.2917 75.5596 18.625C75.5262 19.1583 75.5929 19.8917 75.7596 20.825V21.1C75.9096 21.3 76.0512 21.5667 76.1846 21.9C76.3512 22.1167 76.4596 22.275 76.5096 22.375C76.5762 22.4583 76.6179 22.5083 76.6346 22.525C76.8012 22.6417 76.9012 22.725 76.9346 22.775C77.0679 22.7083 77.1596 22.6583 77.2096 22.625V22.45C77.2929 22.3833 77.3679 22.3333 77.4346 22.3C77.4179 22.3 77.4762 22.2417 77.6096 22.125L77.7346 22C77.9846 21.4667 78.1096 21.1917 78.1096 21.175C78.1096 21.1417 78.1012 21.0833 78.0846 21C78.0179 20.85 78.0596 20.7333 78.2096 20.65C78.2096 20.65 78.3096 20.3583 78.5096 19.775V19.625C78.5429 19.525 78.5262 19.45 78.4596 19.4V19.225C78.4929 19.1583 78.5096 19.0917 78.5096 19.025C78.5762 18.7583 78.6012 18.6 78.5846 18.55C78.5846 18.5 78.5929 18.4417 78.6096 18.375C78.6262 18.2917 78.6512 18.2333 78.6846 18.2C78.7346 18.1333 78.6512 18.05 78.4346 17.95ZM74.8846 13.225C75.0346 13.225 75.1429 13.2083 75.2096 13.175C75.2929 13.125 75.4346 13.0667 75.6346 13C75.8512 12.9333 76.3512 12.9333 77.1346 13C77.5679 13.0833 78.0512 13.3 78.5846 13.65C79.1346 13.9167 79.5762 14.2833 79.9096 14.75C80.3762 15.9833 80.6346 17.0583 80.6846 17.975C80.7179 19.375 80.5846 20.5333 80.2846 21.45C79.8679 22.5 79.5929 23.1167 79.4596 23.3C79.4262 23.5167 79.2929 23.8 79.0596 24.15C78.9762 24.15 78.9096 24.1583 78.8596 24.175C78.8596 24.1917 78.8096 24.2417 78.7096 24.325C78.6262 24.425 78.5012 24.475 78.3346 24.475C78.1179 24.525 77.9846 24.5667 77.9346 24.6C77.9012 24.65 77.8179 24.675 77.6846 24.675L77.0596 24.725H76.3846C75.9346 24.725 75.5762 24.6667 75.3096 24.55L74.5596 24.05L74.3096 23.75C74.2596 23.75 74.2262 23.7333 74.2096 23.7C74.2096 23.65 74.2012 23.6083 74.1846 23.575C74.0346 23.4583 73.9596 23.325 73.9596 23.175C73.7762 22.8917 73.6846 22.6917 73.6846 22.575C73.6846 22.4583 73.6596 22.375 73.6096 22.325C73.6096 22.075 73.5346 21.7083 73.3846 21.225L73.3346 20.875V20.6C73.3179 20.35 73.2512 20.0583 73.1346 19.725C73.1679 19.6917 73.1679 19.6 73.1346 19.45C73.1346 19.0667 73.1429 18.8083 73.1596 18.675L73.0846 18.35C73.1346 18.25 73.1512 18.1583 73.1346 18.075C73.1346 17.9917 73.1596 17.8667 73.2096 17.7V17.525L73.3096 16.65C73.3096 16.5333 73.3262 16.4417 73.3596 16.375V16.2C73.3929 16.2 73.4179 16.1167 73.4346 15.95L73.5596 15.75L73.5846 15.55C73.5846 15.5 73.5762 15.45 73.5596 15.4L73.6846 15.025C73.6846 14.9917 73.7429 14.8917 73.8596 14.725C73.8596 14.6417 73.9179 14.5167 74.0346 14.35C74.0346 14.2667 74.0762 14.1667 74.1596 14.05C74.1596 13.9 74.2512 13.7083 74.4346 13.475C74.6012 13.3083 74.7512 13.225 74.8846 13.225ZM87.6246 18.85L88.0496 17.1C88.0496 17.0333 88.0996 16.9 88.1996 16.7C88.3163 16.4833 88.3829 16.35 88.3996 16.3C88.4996 16.25 88.6663 16.2333 88.8996 16.25C89.2663 16.2833 89.6079 16.4583 89.9246 16.775C90.0579 16.8083 90.1163 16.9333 90.0996 17.15C90.1496 17.1 90.1413 17.2083 90.0746 17.475C89.9746 17.975 89.8746 18.3 89.7746 18.45C89.6913 18.8667 89.6496 19.4583 89.6496 20.225C89.6163 20.775 89.6579 21.2417 89.7746 21.625C89.7746 22.0917 89.8579 22.45 90.0246 22.7L90.2246 22.075C90.2246 21.825 90.2746 21.5417 90.3746 21.225C90.3746 21.175 90.3996 21.0083 90.4496 20.725C90.5163 20.4417 90.5663 20.2083 90.5996 20.025C90.6329 19.825 90.6663 19.675 90.6996 19.575C90.8163 19.225 90.9246 18.9083 91.0246 18.625C91.0579 18.3917 91.0996 18.1917 91.1496 18.025C91.1996 17.8583 91.2413 17.6917 91.2746 17.525C91.5079 16.975 91.6246 16.5417 91.6246 16.225C91.7579 15.525 91.9079 15.0417 92.0746 14.775C92.2413 14.5083 92.4579 14.375 92.7246 14.375C92.9913 14.375 93.1579 14.3833 93.2246 14.4C93.4246 14.3667 93.6329 14.5167 93.8496 14.85C93.9496 15.0667 94.0163 15.2333 94.0496 15.35C94.0329 15.4333 94.0163 15.6083 93.9996 15.875C93.9829 16.1417 93.9413 16.425 93.8746 16.725C93.8413 17.0917 93.7996 17.3333 93.7496 17.45C93.5996 17.8 93.4996 18.2083 93.4496 18.675C93.4163 19.125 93.3663 19.4333 93.2996 19.6C93.1496 19.8667 93.0496 20.2083 92.9996 20.625C92.9663 21.025 92.8746 21.3917 92.7246 21.725C92.5913 22.0417 92.5079 22.3333 92.4746 22.6L92.2746 22.925C91.8913 23.925 91.4413 24.525 90.9246 24.725H90.4496C90.2663 24.725 90.0246 24.6833 89.7246 24.6C89.7246 24.5833 89.6246 24.525 89.4246 24.425C88.9746 24.025 88.6829 23.7333 88.5496 23.55C88.2663 23.05 88.0996 22.6667 88.0496 22.4C87.7829 23.0833 87.5246 23.6833 87.2746 24.2C87.2079 24.2667 87.0329 24.625 86.7496 25.275C86.6329 25.4417 86.4163 25.5583 86.0996 25.625L85.4746 25.475C85.2413 25.475 85.0163 25.425 84.7996 25.325L84.1496 25.125C84.0996 25.2083 83.9996 25.2 83.8496 25.1C83.6996 25 83.5579 24.8667 83.4246 24.7L83.3246 24.425C83.1746 24.425 83.0996 24.2917 83.0996 24.025C83.0996 24.0083 83.0663 23.875 82.9996 23.625C82.9496 23.375 82.9663 23.2 83.0496 23.1C83.0663 22.8 83.0746 22.3167 83.0746 21.65C83.1413 21.4333 83.1746 21.0833 83.1746 20.6L83.3746 18.15L83.4996 17.15C83.4996 17.2333 83.5079 17.225 83.5246 17.125C83.5413 17.0083 83.5663 16.8917 83.5996 16.775C83.5996 16.4417 83.6746 16.125 83.8246 15.825C84.0079 15.1083 84.0996 14.75 84.0996 14.75C84.2829 14.0667 84.5413 13.7 84.8746 13.65C85.2413 13.6833 85.5579 13.7583 85.8246 13.875C86.2579 14.075 86.4329 14.45 86.3496 15C86.1663 16.0333 86.0163 17.3 85.8996 18.8C85.8163 19.5167 85.7663 19.9 85.7496 19.95V22.55L85.9746 22.625C86.1079 22.3917 86.2163 22.1667 86.2996 21.95C86.3829 21.7167 86.4746 21.4667 86.5746 21.2C86.6746 20.9167 86.8829 20.4917 87.1996 19.925L87.6246 18.85Z" fill="#333333"/>
<path d="M137.225 16.65C137.308 16 137.333 15.65 137.3 15.6C137.217 15.6333 137.117 15.725 137 15.875L136.175 16.8C135.308 17.8833 134.875 18.525 134.875 18.725C134.875 18.7583 134.817 18.8917 134.7 19.125L134.725 19.525L134.675 20.6V20.875C134.675 21.5917 134.7 22.1083 134.75 22.425C134.767 22.375 134.908 22.2667 135.175 22.1L135.6 21.525C136.033 20.9917 136.308 20.6083 136.425 20.375C136.792 19.2583 136.975 18.625 136.975 18.475C136.975 18.2417 137.042 17.9083 137.175 17.475C137.175 17.325 137.192 17.15 137.225 16.95V16.65ZM131.875 16.25L131.975 15.1C132.025 14.9667 132.033 14.7917 132 14.575L132.175 13.55C132.175 13.4 132.167 13.2417 132.15 13.075C132.133 12.8917 132.142 12.7667 132.175 12.7C132.242 12.5667 132.417 12.45 132.7 12.35H132.6C132.767 12.25 133 12.2417 133.3 12.325C133.6 12.4083 133.85 12.4833 134.05 12.55C134.167 12.7 134.317 12.8667 134.5 13.05L134.525 13.85C134.525 14.2667 134.55 14.7 134.6 15.15C134.583 15.3333 134.583 15.45 134.6 15.5L135.025 15.05C135.042 15.0167 135.225 14.8333 135.575 14.5C135.942 14.1667 136.175 13.9583 136.275 13.875C136.275 13.7917 136.375 13.725 136.575 13.675C137.008 13.575 137.375 13.575 137.675 13.675C137.975 13.7583 138.142 13.8 138.175 13.8L139.1 14.2C139.1 14.2667 139.183 14.325 139.35 14.375L139.575 14.5C139.658 14.5 139.767 14.5583 139.9 14.675C140.1 14.7083 140.175 14.85 140.125 15.1C140.125 15.1667 140.15 15.2333 140.2 15.3V15.9C140.2 16.1667 140.117 16.6417 139.95 17.325C139.8 17.9917 139.7 18.3833 139.65 18.5C139.617 18.6167 139.567 18.7667 139.5 18.95C139.45 19.1333 139.392 19.3083 139.325 19.475C139.242 19.7583 139.075 20.15 138.825 20.65C138.575 21.1333 138.325 21.5167 138.075 21.8C137.492 22.6167 136.842 23.2667 136.125 23.75C135.342 24.05 134.85 24.225 134.65 24.275C134.6 24.275 134.6 24.575 134.65 25.175V26.975L134.725 28.075L134.75 29.2C134.783 29.75 134.767 30.0583 134.7 30.125L134.4 30.375C134.183 30.4583 133.992 30.4667 133.825 30.4C133.492 30.3 133.292 30.225 133.225 30.175C133.158 30.175 133.05 30.1083 132.9 29.975L132.625 29.875C132.392 29.9083 132.25 29.85 132.2 29.7C132.033 29.5667 131.95 29.45 131.95 29.35L131.575 28.8C131.475 28.55 131.425 28.3167 131.425 28.1C131.325 27.7333 131.292 27.45 131.325 27.25L131.275 26.3V24.975C131.275 24.525 131.258 24.2333 131.225 24.1C131.192 24 131.208 23.1167 131.275 21.45C131.325 21.1167 131.35 20.9083 131.35 20.825L131.725 17.75L131.8 16.9V16.7C131.85 16.5 131.875 16.35 131.875 16.25ZM146.839 16.825C146.822 16.4583 146.739 16.1833 146.589 16C146.439 15.8 146.164 15.6833 145.764 15.65C145.647 15.7333 145.489 16.0167 145.289 16.5C145.105 16.9667 144.989 17.4667 144.939 18C144.772 18.8 144.689 19.6 144.689 20.4C144.705 21.2167 144.839 21.8167 145.089 22.2C145.122 22.2667 145.155 22.2917 145.189 22.275C145.272 22.275 145.405 22.1083 145.589 21.775C146.472 20.175 146.889 18.525 146.839 16.825ZM147.614 21.6L147.239 22.575C147.239 22.6083 146.997 22.9667 146.514 23.65C146.364 23.9667 146.08 24.1417 145.664 24.175C145.264 24.2083 144.872 24.1667 144.489 24.05C143.972 23.8667 143.58 23.65 143.314 23.4C143.047 23.15 142.78 22.7333 142.514 22.15C142.264 21.55 142.13 21.0583 142.114 20.675C142.03 20.125 141.989 19.775 141.989 19.625V19.025C141.989 18.425 142.014 18.075 142.064 17.975C142.08 17.9083 142.122 17.7333 142.189 17.45C142.272 16.75 142.472 16.0833 142.789 15.45C143.405 14.2333 144.039 13.6083 144.689 13.575H144.814C144.847 13.5917 144.897 13.6 144.964 13.6H145.289C145.872 13.65 146.23 13.7 146.364 13.75C146.614 13.8167 146.83 13.85 147.014 13.85L147.664 13.975C147.864 13.9583 148.122 14 148.439 14.1C148.772 14.2 148.947 14.275 148.964 14.325C148.997 14.375 149.047 14.5583 149.114 14.875C149.18 15.1917 149.222 15.425 149.239 15.575C149.272 15.7083 149.297 15.85 149.314 16C149.447 17.2167 149.664 18.35 149.964 19.4C149.98 19.45 149.997 19.525 150.014 19.625C150.03 19.725 150.089 19.925 150.189 20.225C150.289 20.5083 150.364 20.75 150.414 20.95C150.464 21.15 150.555 21.4167 150.689 21.75C150.789 22 150.939 22.2917 151.139 22.625C151.505 23.1417 151.314 23.5417 150.564 23.825C150.464 23.8583 150.289 23.875 150.039 23.875C149.989 23.875 149.83 23.7917 149.564 23.625C149.397 23.625 149.239 23.5333 149.089 23.35L148.889 23.3C148.772 23.1833 148.672 23.125 148.589 23.125C148.555 23.0917 148.255 22.4167 147.689 21.1C147.639 21.2833 147.614 21.45 147.614 21.6ZM152.98 14.9C152.864 14.3 152.989 13.8833 153.355 13.65C153.539 13.55 153.68 13.5083 153.78 13.525C153.897 13.525 154.255 13.6167 154.855 13.8C154.939 13.8 154.997 13.8167 155.03 13.85C155.064 13.85 155.114 13.8667 155.18 13.9C155.33 13.9 155.405 13.9333 155.405 14C155.555 14.25 155.647 14.5417 155.68 14.875C155.747 15.5583 155.83 16.1167 155.93 16.55C155.93 16.5333 155.939 16.5083 155.955 16.475C156.272 16.075 156.439 15.8417 156.455 15.775C156.422 15.7417 156.48 15.65 156.63 15.5C156.747 15.1333 156.83 14.9083 156.88 14.825C156.88 14.7417 156.955 14.6083 157.105 14.425C157.222 14.1917 157.322 14.0417 157.405 13.975C157.489 13.8917 157.555 13.825 157.605 13.775C157.855 13.525 158.189 13.4333 158.605 13.5C158.655 13.5 158.747 13.4917 158.88 13.475C159.147 13.4417 159.305 13.4667 159.355 13.55C159.872 13.55 160.072 14.1833 159.955 15.45C159.889 16.0167 159.789 16.3417 159.655 16.425C159.522 16.5083 159.264 16.6 158.88 16.7C158.514 16.8 158.255 16.8833 158.105 16.95C157.522 17.2 157.147 17.5833 156.98 18.1C156.964 18.2833 156.914 18.475 156.83 18.675C156.797 18.9417 156.772 19.1 156.755 19.15C156.755 19.2 156.755 19.3 156.755 19.45C156.755 19.7833 156.705 20.1 156.605 20.4C156.555 20.7167 156.53 21.225 156.53 21.925C156.547 22.6083 156.53 23.0917 156.48 23.375C156.447 23.6583 156.422 23.8 156.405 23.8C156.422 23.8833 156.43 23.9417 156.43 23.975V24.125C156.38 24.2583 156.222 24.4583 155.955 24.725L155.58 24.75C155.197 24.75 154.989 24.725 154.955 24.675C154.789 24.6083 154.664 24.5083 154.58 24.375C154.48 24.3583 154.43 24.2917 154.43 24.175C154.28 24.1417 154.189 24.0417 154.155 23.875C153.972 23.675 153.88 23.5417 153.88 23.475C153.697 22.8417 153.63 22.2917 153.68 21.825V20.55C153.714 20.45 153.73 20.3917 153.73 20.375V20.15C153.83 20.05 153.847 19.9833 153.78 19.95V19.75C153.797 19.7333 153.805 19.675 153.805 19.575C153.822 19.475 153.839 19.3 153.855 19.05C153.889 18.8333 153.83 18.1 153.68 16.85C153.614 16.7833 153.497 16.4417 153.33 15.825C153.33 15.725 153.297 15.6083 153.23 15.475V15.25C153.164 15.05 153.105 14.95 153.055 14.95C153.005 14.9333 152.98 14.9167 152.98 14.9ZM165.865 24.825L165.49 24.8C165.29 24.8167 165.031 24.75 164.715 24.6C164.481 24.6 164.29 24.5583 164.14 24.475C163.973 24.4417 163.84 24.3917 163.74 24.325C163.656 24.2583 163.54 24.1917 163.39 24.125C163.256 24.075 163.173 24.025 163.14 23.975L162.74 23.5C162.623 23.2667 162.515 23.075 162.415 22.925C162.331 22.775 162.298 22.6833 162.315 22.65C162.265 22.6 162.173 22.4583 162.04 22.225C161.873 21.175 161.773 20.4917 161.74 20.175C161.69 19.425 161.756 18.8083 161.94 18.325C162.123 17.8417 162.215 17.5167 162.215 17.35C162.215 16.9333 162.298 16.6417 162.465 16.475L162.84 15.65L163.14 15.325C163.14 15.3083 163.323 15.1417 163.69 14.825C163.723 14.825 163.806 14.7667 163.94 14.65C164.09 14.5167 164.356 14.3917 164.74 14.275C165.14 14.1417 165.373 14.075 165.44 14.075H165.94C165.956 14.075 166.123 14.1 166.44 14.15C166.756 14.2 166.99 14.2333 167.14 14.25C167.39 14.2833 167.806 14.4083 168.39 14.625C168.723 14.9417 169.015 15.375 169.265 15.925C169.415 16.8083 169.431 17.4083 169.315 17.725L169.165 18.2C169.148 18.3 169.04 18.4167 168.84 18.55C168.423 18.8667 167.973 19.0083 167.49 18.975C167.04 18.8917 166.806 18.7583 166.79 18.575C166.756 18.4917 166.815 18.2917 166.965 17.975C167.115 17.6417 167.19 17.1833 167.19 16.6C167.073 16.3 166.923 16.1333 166.74 16.1C166.39 16.0833 166.048 16.325 165.715 16.825C165.615 16.9583 165.54 17.075 165.49 17.175C165.456 17.2583 165.415 17.3417 165.365 17.425C165.331 17.4917 165.323 17.525 165.34 17.525C165.24 17.6417 165.156 17.775 165.09 17.925C165.073 18.0417 165.065 18.1417 165.065 18.225C165.065 18.3083 165.04 18.425 164.99 18.575C164.74 19.5083 164.615 20.2333 164.615 20.75C164.615 21.2667 164.698 21.725 164.865 22.125C164.898 22.3417 164.94 22.4917 164.99 22.575C165.04 22.6583 165.131 22.7583 165.265 22.875C165.781 23.325 166.415 23.325 167.165 22.875C167.281 22.7917 167.406 22.6667 167.54 22.5C167.673 22.3167 167.79 22.2 167.89 22.15C168.04 22.15 168.198 22.2167 168.365 22.35C168.615 22.4167 168.715 22.6417 168.665 23.025C168.565 23.275 168.481 23.45 168.415 23.55C168.048 24.4 167.265 24.825 166.065 24.825H165.865ZM175.886 14.825C175.852 14.7417 175.736 14.7083 175.536 14.725C175.352 14.7417 175.211 14.8417 175.111 15.025C174.427 16.1083 174.061 17.2667 174.011 18.5C174.577 18.6333 175.061 18.3833 175.461 17.75C175.977 16.1167 176.119 15.1417 175.886 14.825ZM173.936 24.75L173.686 24.7L173.336 24.35C173.236 24.35 173.161 24.3083 173.111 24.225C172.927 24.0083 172.594 23.575 172.111 22.925L171.736 21.55C171.736 21.2833 171.686 21.05 171.586 20.85C171.419 20.1 171.319 19.675 171.286 19.575C171.252 19.4583 171.227 19.15 171.211 18.65C171.211 18.15 171.236 17.7833 171.286 17.55C171.336 17.2333 171.644 16.45 172.211 15.2C172.361 15.05 172.452 14.85 172.486 14.6L172.886 14.025C173.252 13.5917 173.644 13.275 174.061 13.075C174.061 13.0417 174.344 12.9583 174.911 12.825C175.027 12.8083 175.294 12.85 175.711 12.95C176.711 13.1833 177.336 13.475 177.586 13.825L177.661 13.95C177.977 14.4 178.161 15.0917 178.211 16.025C178.161 16.4417 178.119 16.7917 178.086 17.075C178.052 17.3583 177.869 17.875 177.536 18.625C177.286 19.0917 177.044 19.4667 176.811 19.75C176.444 20.0167 176.194 20.15 176.061 20.15C175.994 20.1833 175.852 20.2 175.636 20.2H175.061C175.011 20.1833 174.902 20.175 174.736 20.175C174.569 20.175 174.327 20.1333 174.011 20.05C174.011 20.4167 174.111 20.9417 174.311 21.625C174.527 22.2917 174.702 22.7 174.836 22.85C175.186 23.1167 175.461 23.2917 175.661 23.375C175.861 23.4583 176.127 23.475 176.461 23.425C176.794 23.3583 177.036 23.2417 177.186 23.075L177.836 22.275C178.252 21.7083 178.677 21.6583 179.111 22.125C179.311 22.3417 179.386 22.5583 179.336 22.775C179.302 22.975 179.136 23.3833 178.836 24C178.586 24.4 178.319 24.7333 178.036 25C177.519 25.2667 177.211 25.4 177.111 25.4C176.961 25.4167 176.727 25.3917 176.411 25.325C176.244 25.4083 175.961 25.4 175.561 25.3C175.561 25.2667 175.511 25.2417 175.411 25.225C175.327 25.225 175.211 25.2 175.061 25.15L175.111 25.125C175.077 25.125 174.977 25.125 174.811 25.125L174.111 24.75H173.936ZM181.535 10.625L181.71 9.15L181.735 8.375C181.735 8.15833 181.777 7.99167 181.86 7.875L182.11 7.525C182.56 7.175 182.852 6.975 182.985 6.925C183.118 6.875 183.31 6.88333 183.56 6.95C183.827 7 183.985 7.05 184.035 7.1L184.31 7.325C184.46 7.40833 184.535 7.54167 184.535 7.725C184.618 7.825 184.643 7.9 184.61 7.95C184.51 8.06667 184.343 9.05 184.11 10.9L183.91 14.3L183.785 14.975C183.785 15.1917 183.793 15.3167 183.81 15.35V15.8C183.777 16.1333 183.743 16.3417 183.71 16.425C183.71 16.5083 183.693 16.6 183.66 16.7C183.693 16.7333 183.71 16.8667 183.71 17.1C183.71 17.3167 183.685 17.45 183.635 17.5C183.602 17.7667 183.585 18.025 183.585 18.275C183.585 18.5083 183.602 18.7583 183.635 19.025C183.685 19.275 183.702 19.525 183.685 19.775L183.785 20.725V21.1C183.818 21.4 183.835 21.6417 183.835 21.825L183.96 23.125L184.06 23.8C184.11 24.0833 184.085 24.3583 183.985 24.625C183.902 24.8917 183.768 25.0583 183.585 25.125C183.068 25.3417 182.502 25.2 181.885 24.7H181.685C181.568 24.5667 181.477 24.3833 181.41 24.15C181.277 24.0833 181.218 23.9667 181.235 23.8C181.252 23.6333 181.218 23.4833 181.135 23.35C181.052 23.2167 181.01 23.1 181.01 23C181.01 22.7833 180.993 22.5917 180.96 22.425L180.985 22.225C180.935 22.175 180.91 22.1 180.91 22L180.86 21.55V21.35C180.86 21.2167 180.852 21.125 180.835 21.075C180.835 21.025 180.86 20.9417 180.91 20.825C180.86 20.7583 180.852 20.5167 180.885 20.1C180.985 18.8167 181.035 17.9333 181.035 17.45L181.06 16.85V16.125C181.077 15.725 181.085 15.2167 181.085 14.6C181.102 13.9833 181.135 13.65 181.185 13.6L181.16 13.375C181.16 12.975 181.218 12.4333 181.335 11.75C181.468 11.05 181.535 10.675 181.535 10.625ZM186.741 16.875C186.724 16.675 186.732 16.2917 186.766 15.725L186.941 14.875L187.441 13.8L187.841 13.3C187.841 13.1667 188.274 12.9833 189.141 12.75H189.166C189.349 12.7333 189.632 12.75 190.016 12.8C190.416 12.85 190.799 13.0167 191.166 13.3C191.532 13.5667 191.782 13.7917 191.916 13.975C192.266 14.675 192.416 15.325 192.366 15.925C192.366 16.0917 192.282 16.2917 192.116 16.525C192.099 16.5583 191.974 16.6083 191.741 16.675C191.507 16.7417 191.316 16.75 191.166 16.7C191.016 16.6333 190.841 16.5333 190.641 16.4C190.441 16.2667 190.349 16.0583 190.366 15.775C190.216 15.6083 190.182 15.3917 190.266 15.125C190.299 14.925 190.274 14.775 190.191 14.675L189.891 14.55C189.791 14.5833 189.691 14.7333 189.591 15C189.507 15.2667 189.466 15.5917 189.466 15.975C189.466 16.675 189.641 17.3083 189.991 17.875C190.107 18.0583 190.307 18.275 190.591 18.525L191.041 19.075L191.691 19.675L192.166 20.325C192.282 20.4417 192.441 20.7 192.641 21.1C192.857 21.4833 192.966 21.8333 192.966 22.15C192.966 22.45 192.874 22.8333 192.691 23.3L192.466 23.625C192.466 23.6583 192.374 23.7667 192.191 23.95C191.691 24.45 191.149 24.7583 190.566 24.875H190.391C189.857 24.9417 189.332 24.9333 188.816 24.85L188.041 24.65C187.957 24.65 187.866 24.6167 187.766 24.55C187.666 24.5 187.574 24.4583 187.491 24.425C187.107 24.175 186.874 23.975 186.791 23.825C186.707 23.775 186.649 23.5417 186.616 23.125C186.499 22.875 186.524 22.5333 186.691 22.1C186.691 21.85 186.716 21.6583 186.766 21.525C187.082 21.1583 187.491 21.075 187.991 21.275C188.157 21.3417 188.241 21.475 188.241 21.675C188.241 21.725 188.266 21.9 188.316 22.2C188.382 22.4833 188.482 22.75 188.616 23C188.749 23.25 188.932 23.375 189.166 23.375C189.399 23.375 189.641 23.2833 189.891 23.1C190.157 22.5833 190.291 22.3 190.291 22.25L190.341 21.9C190.374 21.65 190.299 21.3917 190.116 21.125C190.066 20.925 189.949 20.725 189.766 20.525L189.391 19.975L189.016 19.625C188.949 19.6083 188.741 19.475 188.391 19.225C188.374 19.175 188.282 19.0583 188.116 18.875C187.949 18.6917 187.791 18.4667 187.641 18.2C187.491 17.9167 187.299 17.6667 187.066 17.45C187.049 17.3333 186.941 17.1417 186.741 16.875Z" fill="#333333"/>
<path d="M100.625 21.875C100.558 21.8083 100.492 21.65 100.425 21.4C100.375 21.15 100.35 20.9167 100.35 20.7C100.367 20.4833 100.35 20.2 100.3 19.85C100.317 19.7833 100.325 19.6 100.325 19.3C100.325 18.9833 100.308 18.675 100.275 18.375C100.242 18.0583 100.225 17.8083 100.225 17.625C100.242 17.425 100.242 17.2083 100.225 16.975C100.242 16.8583 100.275 16.6583 100.325 16.375C100.308 16.3583 100.3 16.15 100.3 15.75C100.3 15.3333 100.333 15 100.4 14.75C100.4 14.2833 100.442 13.775 100.525 13.225V12.8C100.642 12.0833 100.717 11.575 100.75 11.275C100.767 10.9083 100.817 10.6083 100.9 10.375C100.833 10.1583 100.908 9.69167 101.125 8.975C101.192 8.80833 101.417 8.65 101.8 8.5L101.775 8.525C101.875 8.45833 102.083 8.43333 102.4 8.45C102.717 8.46667 102.925 8.5 103.025 8.55C103.142 8.6 103.342 8.66667 103.625 8.75C104.008 8.85 104.108 9.775 103.925 11.525C103.925 11.6917 103.875 12.1083 103.775 12.775C103.775 13.1083 103.75 13.45 103.7 13.8V14.275L103.65 14.9C103.65 15.05 103.642 15.1917 103.625 15.325C103.625 15.4583 103.617 15.6667 103.6 15.95C103.6 16.2167 103.575 16.425 103.525 16.575C103.492 16.725 103.475 16.825 103.475 16.875C103.425 16.925 103.392 17.0667 103.375 17.3C103.358 17.5833 103.308 17.925 103.225 18.325C103.142 18.475 103.175 19.35 103.325 20.95C103.358 21.45 103.475 21.7833 103.675 21.95C103.875 22.1 104.15 22.05 104.5 21.8C104.6 21.7 104.658 21.6333 104.675 21.6L104.775 21.225C104.842 21.225 104.933 21.0583 105.05 20.725L105.325 20.225L105.4 19.925C105.4 19.7917 105.467 19.6083 105.6 19.375C105.75 19.125 105.842 18.9583 105.875 18.875L106.25 17.625L106.4 17C106.4 16.9 106.467 16.7167 106.6 16.45C106.6 16.3667 106.642 16.15 106.725 15.8C106.725 15.4833 106.717 15.2583 106.7 15.125C106.717 15.125 106.725 15.075 106.725 14.975C106.742 14.875 106.783 14.7167 106.85 14.5C106.933 14.2667 106.975 13.9833 106.975 13.65C106.975 13.6 107.05 13.4333 107.2 13.15C107.2 12.7167 107.358 12.1417 107.675 11.425C107.658 11.4417 107.658 11.425 107.675 11.375C107.692 11.3083 107.7 11.2583 107.7 11.225C107.717 11.175 107.733 11.125 107.75 11.075C107.767 11.025 107.775 10.975 107.775 10.925C107.725 10.825 107.733 10.7 107.8 10.55C107.867 10.4 107.925 10.2417 107.975 10.075C108.025 9.90833 108.083 9.74167 108.15 9.575L108.75 9.175C108.833 9.175 108.942 9.16667 109.075 9.15C109.225 9.11667 109.558 9.11667 110.075 9.15C110.275 9.21667 110.433 9.4 110.55 9.7C110.733 9.98333 110.758 10.4 110.625 10.95C110.625 11.0667 110.558 11.475 110.425 12.175C110.425 12.2917 110.375 12.5667 110.275 13C110.175 13.4333 110.1 13.825 110.05 14.175C110.017 14.5083 109.975 14.7333 109.925 14.85C109.892 15.0833 109.883 15.275 109.9 15.425L109.75 16.5C109.75 16.7667 109.725 17.1667 109.675 17.7C109.625 18.2333 109.567 18.65 109.5 18.95C109.45 19.2333 109.533 19.8083 109.75 20.675L110.05 22.3C110.05 22.55 110.092 22.7667 110.175 22.95C110.258 23.1167 110.3 23.2 110.3 23.2V23.325C110.767 24.2417 110.608 24.775 109.825 24.925C109.442 25.025 109.208 25.0917 109.125 25.125C109.042 25.175 108.858 25.1583 108.575 25.075C108.308 25.0083 108.058 24.8583 107.825 24.625C107.758 24.525 107.667 24.225 107.55 23.725C107.5 23.625 107.442 23.3333 107.375 22.85C107.325 22.8 107.267 22.6083 107.2 22.275C107.233 22.2083 107.2 22.1 107.1 21.95C106.983 22.1833 106.9 22.3333 106.85 22.4C106.733 22.5833 106.658 22.7167 106.625 22.8C106.608 22.8667 106.55 23.0333 106.45 23.3L106 24.1C105.65 24.75 105.217 25.0417 104.7 24.975C104.683 24.9583 104.517 24.9417 104.2 24.925C104.133 24.8583 103.9 24.8 103.5 24.75C103.433 24.7333 103.35 24.7167 103.25 24.7C103.15 24.7 103.017 24.6917 102.85 24.675C102.817 24.625 102.692 24.5333 102.475 24.4C101.975 24.2167 101.633 23.9667 101.45 23.65C101.3 23.6167 101.192 23.5 101.125 23.3C101.092 23.2 100.983 22.9667 100.8 22.6L100.625 21.875ZM118.345 13.875L118.245 13.45C118.245 12.3333 118.12 11.5583 117.87 11.125C117.837 11.1083 117.812 11.1 117.795 11.1C117.712 11.1 117.654 11.2 117.62 11.4C117.42 11.8 117.237 12.35 117.07 13.05C117.004 13.1167 116.929 13.3667 116.845 13.8C116.595 14.9167 116.404 15.6083 116.27 15.875L116.22 16.25C116.104 16.6333 116.095 16.8833 116.195 17C116.195 16.9333 116.545 16.825 117.245 16.675C117.945 16.525 118.312 16.4417 118.345 16.425C118.379 16.4083 118.387 16.325 118.37 16.175C118.37 16.025 118.42 15.7917 118.52 15.475C118.554 15.4583 118.529 15.4 118.445 15.3C118.379 15.1833 118.354 15.0083 118.37 14.775C118.337 14.675 118.32 14.5333 118.32 14.35C118.337 14.1667 118.345 14.0083 118.345 13.875ZM120.945 14.05L120.995 14.425C121.095 14.4583 121.129 14.525 121.095 14.625C121.062 14.725 121.054 14.8667 121.07 15.05C121.12 15.7167 121.204 16.225 121.32 16.575C121.32 16.775 121.354 17.0333 121.42 17.35C121.504 17.65 121.537 17.8083 121.52 17.825C121.504 17.8417 121.495 17.9083 121.495 18.025V18.275C121.395 18.0583 121.387 18.225 121.47 18.775C121.537 18.9083 121.587 19.1167 121.62 19.4C121.67 19.6833 121.77 20.1833 121.92 20.9C122.237 22.15 122.395 22.8417 122.395 22.975C122.395 23.0917 122.345 23.2917 122.245 23.575C122.145 23.8417 121.995 24.0333 121.795 24.15L120.67 24.225C120.42 24.1583 120.112 23.9667 119.745 23.65C119.529 23.4333 119.395 23.1917 119.345 22.925L119.045 22.075C119.029 21.975 119.02 21.825 119.02 21.625C119.004 21.6083 118.979 21.5 118.945 21.3C118.979 21.2167 118.937 21.05 118.82 20.8V20.35C118.87 20.2667 118.837 20.1083 118.72 19.875L118.595 19.075C118.629 19.0083 118.529 18.8667 118.295 18.65C118.129 18.7333 117.912 18.8 117.645 18.85H116.845C116.529 18.85 116.262 18.8583 116.045 18.875C115.929 18.875 115.87 19.2083 115.87 19.875C115.854 19.925 115.812 20.0417 115.745 20.225C115.745 20.3083 115.712 20.4417 115.645 20.625C115.579 20.8083 115.545 20.9667 115.545 21.1C115.545 21.2167 115.529 21.3 115.495 21.35C115.412 21.5167 115.295 21.9167 115.145 22.55C114.995 23.1667 114.879 23.575 114.795 23.775C114.729 23.975 114.72 24.1 114.77 24.15C114.787 24.2 114.762 24.2833 114.695 24.4C114.629 24.5167 114.554 24.6 114.47 24.65C114.287 24.65 114.087 24.6083 113.87 24.525C113.654 24.4417 113.395 24.4 113.095 24.4C112.879 24.3667 112.687 24.15 112.52 23.75C112.487 23.6333 112.462 23.5333 112.445 23.45C112.479 23.4 112.504 23.275 112.52 23.075C112.404 22.9917 112.345 22.8333 112.345 22.6L112.37 22.25C112.37 22.1 112.412 21.9583 112.495 21.825C112.479 21.825 112.512 21.6833 112.595 21.4C112.495 21.3333 112.554 20.825 112.77 19.875C112.77 19.6417 112.845 19.3 112.995 18.85C113.062 18.55 113.095 18.35 113.095 18.25C113.112 18.1 113.129 18.0083 113.145 17.975C113.162 17.925 113.179 17.8667 113.195 17.8C113.379 17.3 113.479 16.9583 113.495 16.775C113.512 16.575 113.645 16.175 113.895 15.575C113.945 15.475 113.97 15.325 113.97 15.125C113.97 14.925 113.995 14.7667 114.045 14.65C114.095 14.5333 114.137 14.4 114.17 14.25C114.22 14.1 114.287 13.9417 114.37 13.775C114.32 13.725 114.337 13.5583 114.42 13.275C114.42 13.175 114.487 12.9667 114.62 12.65C114.754 12.3167 114.82 12.1083 114.82 12.025C114.837 11.925 114.854 11.8583 114.87 11.825C114.904 11.775 114.937 11.7 114.97 11.6C115.004 11.5 115.054 11.3917 115.12 11.275C115.187 11.1583 115.22 11.0583 115.22 10.975C115.237 10.8917 115.287 10.75 115.37 10.55C115.37 10.4333 115.395 10.2833 115.445 10.1C115.495 10.05 115.604 9.89167 115.77 9.625C115.77 9.525 115.912 9.36667 116.195 9.15C116.495 8.93333 116.679 8.78333 116.745 8.7L118.045 8.5C118.062 8.36667 118.162 8.16667 118.345 7.9C118.862 7.65 119.387 7.56667 119.92 7.65C119.937 7.65 119.97 7.65833 120.02 7.675C120.087 7.69167 120.162 7.70833 120.245 7.725C120.345 7.74167 120.454 7.76667 120.57 7.8C120.704 7.83333 120.77 7.95 120.77 8.15L120.745 11.125C120.779 11.2583 120.804 11.6083 120.82 12.175C120.854 12.725 120.904 13.125 120.97 13.375C120.97 13.7583 120.962 13.9833 120.945 14.05Z" fill="#333333"/>
<path d="M24.5472 4.66448L9.39873 11.7861V16.3592L6.7561 15.1842V10.611L21.9046 3.48947L16.8165 1.22718C16.1352 0.924274 15.0204 0.924274 14.3391 1.22718L1.81014 6.79803C0.811987 7.24184 -0.00253945 8.49866 5.94958e-06 9.59104L0.0308561 22.6507C0.0334524 23.7546 0.866153 25.0128 1.88126 25.4468L14.3774 30.7887C15.0364 31.0704 16.1149 31.0704 16.7739 30.7888L29.2743 25.4468C30.2894 25.013 31.1222 23.7549 31.1247 22.651L31.1556 9.59104C31.1582 8.49866 30.3437 7.24184 29.3455 6.79803L24.5472 4.66448ZM28.3251 15.118L27.5918 15.4582L27.577 20.6179C27.5763 20.8434 27.3772 21.1118 27.1327 21.2172L26.035 21.6911C25.7943 21.795 25.5997 21.6987 25.5995 21.4762L25.5958 16.3843L24.8856 16.7138C24.5515 16.8687 24.3424 16.6258 24.5083 16.2759L26.206 12.6942C26.3773 12.3327 26.807 12.1241 26.979 12.3202L28.7211 14.3062C28.895 14.5045 28.6742 14.9561 28.3251 15.118ZM21.1571 23.4042C21.159 23.6202 20.9764 23.8746 20.7498 23.9724L19.7319 24.4119C19.5086 24.5082 19.326 24.4133 19.3235 24.2001L19.2639 19.3218L18.6052 19.6273C18.2954 19.771 18.0978 19.5353 18.2486 19.2026L19.7916 15.7978C19.9472 15.4543 20.3451 15.2612 20.5074 15.4514L22.1518 17.3775C22.316 17.5698 22.1156 17.9987 21.7923 18.1486L21.1133 18.4636L21.1571 23.4042ZM29.5368 21.9877C29.5361 22.101 29.4342 22.2354 29.3094 22.2879L17.6823 27.1725C17.5738 27.2181 17.4845 27.1703 17.483 27.0658L17.474 26.4976C17.4724 26.3928 17.5591 26.2704 17.6678 26.2241L29.3156 21.2622C29.4406 21.209 29.5415 21.2579 29.5407 21.3715L29.5368 21.9877Z" fill="#333333"/>
<path d="M9.39873 11.7861L24.5472 4.66448L21.9046 3.48947L6.7561 10.611V15.1842L9.39873 16.3592V11.7861Z" fill="white"/>
<path d="M21.1571 23.4042C21.159 23.6202 20.9764 23.8746 20.7498 23.9724L19.7319 24.4119C19.5086 24.5082 19.326 24.4133 19.3235 24.2001L19.2639 19.3218L18.6052 19.6273C18.2954 19.771 18.0978 19.5353 18.2486 19.2026L19.7916 15.7978C19.9472 15.4543 20.3451 15.2612 20.5074 15.4514L22.1518 17.3775C22.316 17.5698 22.1156 17.9987 21.7923 18.1486L21.1133 18.4636L21.1571 23.4042Z" fill="white"/>
<path d="M28.3251 15.118L27.5918 15.4582L27.577 20.6179C27.5763 20.8434 27.3772 21.1118 27.1327 21.2172L26.035 21.6911C25.7943 21.795 25.5997 21.6987 25.5995 21.4762L25.5958 16.3843L24.8856 16.7138C24.5515 16.8687 24.3424 16.6258 24.5083 16.2759L26.206 12.6942C26.3773 12.3327 26.807 12.1241 26.979 12.3202L28.7211 14.3062C28.895 14.5045 28.6742 14.9561 28.3251 15.118Z" fill="white"/>
<path d="M29.5368 21.9877C29.5361 22.101 29.4342 22.2354 29.3094 22.2879L17.6823 27.1725C17.5738 27.2181 17.4845 27.1703 17.483 27.0658L17.474 26.4976C17.4724 26.3928 17.5591 26.2704 17.6678 26.2241L29.3156 21.2622C29.4406 21.209 29.5415 21.2579 29.5407 21.3715L29.5368 21.9877Z" fill="white"/>
</svg>
