<svg width="13" height="15" viewBox="0 0 13 15" fill="none" xmlns="http://www.w3.org/2000/svg">
<path d="M6.29502 3.96867C6.31849 3.96939 6.34211 3.96973 6.36557 3.96973C7.19855 3.96973 8.1025 3.50011 8.66807 2.7735C9.25184 2.02452 9.51709 1.12606 9.39579 0.308412C9.36808 0.121674 9.20076 -0.0126325 9.01301 0.000909063C8.19209 0.0584003 7.26274 0.557557 6.7005 1.24287C6.08877 1.98785 5.80849 2.89614 5.9508 3.67254C5.9815 3.84 6.12486 3.96332 6.29502 3.96867Z" fill="white"/>
<path d="M12.619 10.907C12.5807 10.815 12.5061 10.7428 12.4128 10.7077C10.9243 10.1464 10.4582 8.53332 10.88 7.36031C11.0885 6.77851 11.4988 6.30566 12.0664 5.99291C12.1598 5.94144 12.2257 5.85132 12.2464 5.7467C12.2672 5.64208 12.2407 5.53361 12.174 5.45038C11.4196 4.50893 10.3473 3.94689 9.30548 3.94689C8.57607 3.94689 8.08231 4.13415 7.64667 4.29935C7.32577 4.42103 7.04867 4.52614 6.731 4.52614C6.3796 4.52614 6.05913 4.41135 5.68797 4.27839C5.25411 4.12297 4.76242 3.94684 4.1479 3.94684C2.96352 3.94684 1.76319 4.66309 1.01489 5.81677C0.73799 6.24591 0.54383 6.776 0.43757 7.39299C0.138645 9.14818 0.645126 11.2396 1.79259 12.9879C2.44331 13.9773 3.26331 14.9901 4.41063 14.9998L4.43405 14.9999C4.91196 14.9999 5.23348 14.8563 5.54441 14.7175C5.87297 14.5707 6.18332 14.4321 6.74546 14.4293L6.76396 14.4292C7.3155 14.4292 7.61602 14.5671 7.93417 14.7131C8.23898 14.8529 8.55419 14.9975 9.03084 14.9975L9.05267 14.9974C10.1771 14.9878 11.0286 13.9225 11.714 12.8806C12.1353 12.2353 12.2957 11.9055 12.6151 11.1938C12.6559 11.1029 12.6573 10.9991 12.619 10.907Z" fill="white"/>
</svg>
