<svg width="15" height="15" viewBox="0 0 15 15" fill="none" xmlns="http://www.w3.org/2000/svg">
<g clip-path="url(#clip0_5_17)">
<path d="M14.8213 7.64033C14.8213 7.02579 14.7714 6.57733 14.6635 6.11227H7.64599V8.88601H11.7651C11.6821 9.57533 11.2336 10.6134 10.237 11.311L10.2231 11.4038L12.4419 13.1227L12.5956 13.1381C14.0074 11.8342 14.8213 9.9158 14.8213 7.64033Z" fill="white"/>
<path d="M7.64599 14.9485C9.66401 14.9485 11.3581 14.2841 12.5956 13.1381L10.237 11.311C9.6059 11.7511 8.7588 12.0584 7.64599 12.0584C5.66948 12.0584 3.99195 10.7546 3.39395 8.95248L3.3063 8.95993L0.99916 10.7454L0.968989 10.8293C2.19807 13.2709 4.72271 14.9485 7.64599 14.9485Z" fill="white"/>
<path d="M3.39395 8.95247C3.23616 8.48741 3.14485 7.98909 3.14485 7.47422C3.14485 6.9593 3.23616 6.46103 3.38565 5.99598L3.38147 5.89693L1.04542 4.08273L0.968989 4.11909C0.462424 5.13228 0.171756 6.27004 0.171756 7.47422C0.171756 8.6784 0.462424 9.81611 0.968989 10.8293L3.39395 8.95247Z" fill="white"/>
<path d="M7.64599 2.89002C9.04947 2.89002 9.99618 3.49626 10.536 4.00288L12.6454 1.9433C11.3499 0.739122 9.66401 0 7.64599 0C4.72271 0 2.19807 1.67754 0.968989 4.1191L3.38565 5.99599C3.99195 4.19387 5.66948 2.89002 7.64599 2.89002Z" fill="white"/>
</g>
<defs>
<clipPath id="clip0_5_17">
<rect width="15" height="15" fill="white"/>
</clipPath>
</defs>
</svg>
