<svg width="80" height="78" viewBox="0 0 80 78" fill="none" xmlns="http://www.w3.org/2000/svg">
<path d="M63.0311 9.8932L24.1336 28.1797V39.9225L17.348 36.9052V25.1625L56.2455 6.87608L43.1807 1.06706C41.4312 0.289282 38.5688 0.289282 36.8193 1.06706L4.64797 15.3716C2.08497 16.5112 -0.00653593 19.7384 1.82699e-08 22.5434L0.0792157 56.0773C0.0858824 58.912 2.22405 62.1427 4.83059 63.2571L36.9177 76.9737C38.6098 77.6971 41.379 77.6971 43.0712 76.9741L75.1693 63.257C77.7757 62.1431 79.914 58.9127 79.9207 56.078L80 22.5434C80.0067 19.7384 77.9152 16.5112 75.352 15.3716L63.0311 9.8932ZM72.7318 36.7353L70.849 37.6089L70.8109 50.8577C70.8092 51.4366 70.2978 52.1258 69.6701 52.3966L66.8514 53.6135C66.2335 53.8803 65.7336 53.6329 65.7332 53.0614L65.7237 39.9868L63.9 40.8328C63.0422 41.2307 62.5054 40.6068 62.9312 39.7085L67.2905 30.5116C67.7305 29.5833 68.8337 29.0477 69.2753 29.5512L73.7486 34.6509C74.1952 35.1599 73.6284 36.3195 72.7318 36.7353ZM54.3263 58.0122C54.3311 58.5668 53.8622 59.22 53.2804 59.4712L50.6665 60.5996C50.0933 60.8471 49.6244 60.6034 49.6179 60.0558L49.4648 47.5295L47.7736 48.3141C46.9782 48.6831 46.4706 48.0778 46.8578 47.2234L50.8199 38.4808C51.2195 37.5988 52.2412 37.1029 52.658 37.5912L56.8804 42.5371C57.3021 43.0309 56.7873 44.1322 55.9573 44.5171L54.2137 45.326L54.3263 58.0122ZM75.8433 54.375C75.8413 54.666 75.5797 55.011 75.2592 55.1458L60.3314 61.417L45.4037 67.6882C45.1251 67.8054 44.896 67.6826 44.8919 67.4143L44.869 65.9552C44.8648 65.6861 45.0873 65.3718 45.3664 65.2529L75.2752 52.5122C75.5961 52.3754 75.8553 52.5009 75.8533 52.7927L75.8433 54.375Z" fill="#FFD100"/>
</svg>
