<svg width="24" height="24" viewBox="0 0 24 24" fill="none" xmlns="http://www.w3.org/2000/svg">
<path fill-rule="evenodd" clip-rule="evenodd" d="M12 23.1429C18.154 23.1429 23.1429 18.154 23.1429 12C23.1429 5.84597 18.154 0.857143 12 0.857143C5.84597 0.857143 0.857143 5.84597 0.857143 12C0.857143 18.154 5.84597 23.1429 12 23.1429ZM12 19.7143C16.2605 19.7143 19.7143 16.2605 19.7143 12C19.7143 7.73952 16.2605 4.28571 12 4.28571C7.73952 4.28571 4.28571 7.73952 4.28571 12C4.28571 16.2605 7.73952 19.7143 12 19.7143Z" fill="#43A047" fill-opacity="0.3"/>
<path fill-rule="evenodd" clip-rule="evenodd" d="M12 24C18.6274 24 24 18.6274 24 12C24 5.37258 18.6274 0 12 0C5.37258 0 0 5.37258 0 12C0 18.6274 5.37258 24 12 24ZM12 23.1429C18.154 23.1429 23.1429 18.154 23.1429 12C23.1429 5.84597 18.154 0.857143 12 0.857143C5.84597 0.857143 0.857143 5.84597 0.857143 12C0.857143 18.154 5.84597 23.1429 12 23.1429Z" fill="#B9B9B9"/>
<path fill-rule="evenodd" clip-rule="evenodd" d="M12 19.7143C16.2605 19.7143 19.7143 16.2605 19.7143 12C19.7143 7.73952 16.2605 4.28571 12 4.28571C7.73952 4.28571 4.28571 7.73952 4.28571 12C4.28571 16.2605 7.73952 19.7143 12 19.7143ZM12 15.4286C13.8935 15.4286 15.4286 13.8935 15.4286 12C15.4286 10.1065 13.8935 8.57143 12 8.57143C10.1065 8.57143 8.57143 10.1065 8.57143 12C8.57143 13.8935 10.1065 15.4286 12 15.4286Z" fill="#43A047"/>
</svg>
