<svg width="14" height="14" xmlns="http://www.w3.org/2000/svg" viewBox="0 0 512 512" class="icon">
	<path fill="currentColor" d="m493.2 56.26-37.51-37.51C443.2 6.252 426.8 0 410.5 0c-16.38 0-32.76 6.25-45.26 18.75L31.04 352.1a16.01 16.01 0 0 0-4.377 8.176l-26.34 131.7C-1.703 502.1 6.156 512 15.95 512a16.24 16.24 0 0 0 3.199-.32l131.7-26.34a16.009 16.009 0 0 0 8.176-4.373L493.3 146.7c25-25 24.9-65.44-.1-90.44zM131.9 440.2l-75.14 15.03 15.03-75.15L96 355.9V416h60.12l-24.22 24.2zM144 368v-60.1l176.9-176.1 60.12 60.12L204.1 368H144z"></path>
</svg>
