<svg width="8" height="12" viewBox="0 0 8 12" fill="none" xmlns="http://www.w3.org/2000/svg">
	<path d="M6.60132 1.35197C6.60132 1.62557 6.37944 1.84753 6.10568 1.84753H0.595209C0.321451 1.84753 0.0994873 1.62557 0.0994873 1.35197C0.0994873 1.0783 0.321451 0.856414 0.595209 0.856414H6.10568C6.37944 0.856414 6.60132 1.0783 6.60132 1.35197Z" fill="#231F20"/>
	<path d="M6.60132 10.648C6.60132 10.9218 6.37944 11.1437 6.10568 11.1437H0.595209C0.321451 11.1437 0.0994873 10.9218 0.0994873 10.648C0.0994873 10.3744 0.321451 10.1525 0.595209 10.1525H6.10568C6.37944 10.1525 6.60132 10.3744 6.60132 10.648Z" fill="#231F20"/>
	<path d="M0.793819 10.5746C0.70025 10.5746 0.617022 10.5082 0.599165 10.4129C0.158631 8.06519 1.80482 6.6396 2.43136 6.19114C0.0869595 4.1344 0.641424 1.73821 0.667039 1.63446C0.693057 1.52813 0.800364 1.46284 0.9067 1.48918C1.01304 1.51528 1.078 1.6225 1.05198 1.72884C1.02774 1.82976 0.509151 4.12883 2.88627 6.0562C2.93718 6.09758 2.96449 6.16141 2.95892 6.2267C2.9535 6.29207 2.91601 6.35049 2.85896 6.38289C2.76273 6.43743 0.503577 7.75378 0.988875 10.3399C1.00908 10.4474 0.938131 10.551 0.830502 10.5711C0.81814 10.5735 0.805859 10.5746 0.793819 10.5746Z" fill="#231F20"/>
	<path d="M5.90706 10.5746C5.89502 10.5746 5.88266 10.5735 5.87038 10.5711C5.76275 10.551 5.69189 10.4474 5.71201 10.3399C6.19852 7.74683 3.86559 6.39614 3.84192 6.38289C3.78487 6.35049 3.74738 6.29207 3.74197 6.2267C3.73639 6.16141 3.76362 6.09758 3.81453 6.05621C6.19391 4.12705 5.67217 1.82556 5.64882 1.7286C5.62321 1.62226 5.68841 1.51512 5.79475 1.48926C5.90084 1.46349 6.00782 1.52837 6.03384 1.63446C6.05938 1.73821 6.61384 4.1344 4.26953 6.19114C4.89615 6.6396 6.54225 8.06519 6.10163 10.4129C6.08378 10.5082 6.00063 10.5746 5.90706 10.5746Z" fill="#231F20"/>
	<path d="M5.37232 10.2552C5.37232 10.2552 5.37232 10.2552 3.35041 10.2552C1.32857 10.2552 1.32857 10.2552 1.32857 10.2552C1.32857 10.2552 0.971668 8.07002 3.35041 6.36413C5.72922 8.07002 5.37232 10.2552 5.37232 10.2552Z" fill="#231F20"/>
	<path d="M3.42975 6.7822H3.27106V5.83172H3.42975V6.7822Z" fill="#231F20"/>
	<path d="M3.3504 6.09991C3.57867 5.93282 3.7814 5.76111 3.96199 5.58747H2.73889C2.91948 5.76111 3.12222 5.93282 3.3504 6.09991Z" fill="#231F20"/>
</svg>
