<svg width="8" height="12" viewBox="0 0 8 12" fill="none" xmlns="http://www.w3.org/2000/svg">
	<path d="M7.06828 1.35197C7.06828 1.62557 6.8464 1.84753 6.57272 1.84753H1.06217C0.78841 1.84753 0.566608 1.62557 0.566608 1.35197C0.566608 1.0783 0.78841 0.856414 1.06217 0.856414H6.57272C6.8464 0.856414 7.06828 1.0783 7.06828 1.35197Z" fill="#231F20"/>
	<path d="M7.06828 10.648C7.06828 10.9218 6.8464 11.1437 6.57272 11.1437H1.06217C0.78841 11.1437 0.566608 10.9218 0.566608 10.648C0.566608 10.3744 0.78841 10.1525 1.06217 10.1525H6.57272C6.8464 10.1525 7.06828 10.3744 7.06828 10.648Z" fill="#231F20"/>
	<path d="M1.26078 10.5746C1.16721 10.5746 1.08398 10.5082 1.06613 10.4129C0.625674 8.06519 2.27178 6.6396 2.8984 6.19114C0.553921 4.1344 1.10847 1.73821 1.13392 1.63446C1.16002 1.52813 1.26732 1.46284 1.37366 1.48918C1.47991 1.51528 1.54504 1.6225 1.51902 1.72884C1.49478 1.82976 0.976194 4.12883 3.35323 6.0562C3.40422 6.09758 3.43145 6.16141 3.42596 6.2267C3.42046 6.29207 3.38305 6.35049 3.32592 6.38289C3.22969 6.43743 0.970537 7.75378 1.45575 10.3399C1.47596 10.4474 1.40509 10.551 1.29754 10.5711C1.28518 10.5735 1.2729 10.5746 1.26078 10.5746Z" fill="#231F20"/>
	<path d="M5.83928 10.2552C5.83928 10.2552 5.83928 10.2552 3.81745 10.2552C1.79561 10.2552 1.79561 10.2552 1.79561 10.2552C1.79561 10.2552 1.43863 9.32149 3.81745 8.59257C6.19626 9.32149 5.83928 10.2552 5.83928 10.2552Z" fill="#231F20"/>
	<path d="M3.89671 9.85559H3.7381V5.83172H3.89671V9.85559Z" fill="#231F20"/>
	<path d="M4.73649 6.19114C7.08089 4.1344 6.52634 1.73821 6.50089 1.63446C6.47487 1.52837 6.36789 1.46349 6.26163 1.48926C6.15538 1.51512 6.09017 1.62226 6.11579 1.7286C6.13914 1.82556 6.66096 4.12705 4.28158 6.0562C4.23067 6.09758 4.20344 6.16141 4.20893 6.2267C4.21435 6.29207 4.25184 6.35049 4.30897 6.38289C4.33256 6.39614 6.66564 7.74683 6.17905 10.3399C6.15885 10.4474 6.22972 10.551 6.33735 10.5711C6.34971 10.5735 6.36199 10.5746 6.37411 10.5746C6.4676 10.5746 6.55083 10.5082 6.56868 10.4129C7.00922 8.06519 5.36311 6.6396 4.73649 6.19114Z" fill="#231F20"/>
	<path d="M5.60503 3.82258H2.02985C2.28988 4.5309 2.80612 5.35952 3.81744 6.09991C4.82876 5.35952 5.34501 4.5309 5.60503 3.82258Z" fill="#231F20"/>
</svg>
