<svg width="14" height="14" viewBox="0 0 14 14" fill="none" xmlns="http://www.w3.org/2000/svg">
<path d="M7 7C6.0375 7 5.25 7.7875 5.25 8.75C5.25 9.7125 6.0375 10.5 7 10.5C7.9625 10.5 8.75 9.7125 8.75 8.75C8.75 7.7875 7.9625 7 7 7ZM12.7176 3.53008L10.4234 1.23594C10.202 1.01336 9.86563 0.875 9.51836 0.875H2.625C1.6584 0.875 0.875 1.6584 0.875 2.625V11.375C0.875 12.3416 1.6584 13.125 2.625 13.125H11.375C12.3416 13.125 13.125 12.3416 13.125 11.375V4.48164C13.125 4.13437 12.9855 3.79805 12.7176 3.53008ZM4.375 2.1875H8.3125V4.375H4.375V2.1875ZM11.8125 11.375C11.8125 11.6166 11.6166 11.8125 11.375 11.8125H2.625C2.38339 11.8125 2.1875 11.6166 2.1875 11.375V2.625C2.1875 2.38334 2.38339 2.1875 2.625 2.1875H3.0625V5.03125C3.0625 5.39355 3.35645 5.6875 3.71875 5.6875H8.96875C9.33242 5.6875 9.625 5.39492 9.625 5.03125V2.29359L11.7646 4.43324C11.7961 4.4625 11.8125 4.50625 11.8125 4.54727V11.375Z" fill="#65CC3D"/>
</svg>
