<svg width="14" height="14" viewBox="0 0 14 14" fill="none" xmlns="http://www.w3.org/2000/svg">
<path fill-rule="evenodd" clip-rule="evenodd" d="M12.5689 0.423889L13.6461 1.73056C13.8678 2.00278 14 2.345 14 2.72222V12.4444C14 13.3039 13.3039 14 12.4444 14H1.55556C0.696111 14 0 13.3039 0 12.4444V2.72222C0 2.345 0.132222 2.00278 0.357778 1.73056L1.435 0.423889C1.64889 0.167222 1.97167 0 2.33333 0H11.6667C12.0283 0 12.3511 0.167222 12.5689 0.423889ZM1.65278 1.55556L2.28667 0.777778H11.62L12.3472 1.55556H1.65278ZM11.3 9.64446L7.02222 5.36668L2.74445 9.64446H5.46667V11.2H8.57778V9.64446H11.3Z" fill="black"/>
</svg>
