<svg width="38" height="39" viewBox="0 0 38 39" fill="none" xmlns="http://www.w3.org/2000/svg">
<path d="M29.9398 5.1254L11.4634 14.1461V19.9388L8.24028 18.4504V12.6577L26.7166 3.63706L20.5108 0.771483C19.6798 0.387808 18.3201 0.387808 17.4892 0.771483L2.20778 7.8279C0.990351 8.39006 -0.00311258 9.98203 -8.00219e-06 11.3657L0.0376194 27.9079C0.0407861 29.3063 1.05642 30.9 2.29452 31.4497L17.5359 38.2161C18.3396 38.5729 19.655 38.5729 20.4588 38.2163L35.7054 31.4496C36.9434 30.9002 37.9591 29.3066 37.9623 27.9083L38 11.3657C38.0031 9.98203 37.0097 8.39006 35.7922 7.8279L29.9398 5.1254ZM34.5476 18.3665L33.6533 18.7975L33.6351 25.3331C33.6343 25.6187 33.3914 25.9586 33.0933 26.0922L31.7544 26.6925C31.4609 26.8241 31.2234 26.7021 31.2233 26.4202L31.2187 19.9705L30.3525 20.3878C29.945 20.5841 29.69 20.2763 29.8923 19.8332L31.9629 15.2964C32.1719 14.8385 32.696 14.5743 32.9057 14.8227L35.0306 17.3383C35.2427 17.5894 34.9735 18.1614 34.5476 18.3665ZM25.805 28.8624C25.8073 29.136 25.5845 29.4582 25.3082 29.5821L24.0666 30.1388C23.7943 30.2608 23.5716 30.1406 23.5685 29.8705L23.4958 23.6913L22.6924 24.0783C22.3146 24.2604 22.0735 23.9618 22.2574 23.5403L24.1394 19.2276C24.3292 18.7925 24.8145 18.5479 25.0126 18.7888L27.0182 21.2286C27.2185 21.4721 26.974 22.0154 26.5797 22.2053L25.7515 22.6043L25.805 28.8624ZM36.0255 27.0682C36.0246 27.2117 35.9004 27.3819 35.7481 27.4484L21.5667 33.6356C21.4344 33.6933 21.3256 33.6328 21.3236 33.5004L21.3128 32.7806C21.3108 32.6479 21.4165 32.4928 21.549 32.4342L35.7557 26.1492C35.9081 26.0818 36.0312 26.1437 36.0303 26.2876L36.0255 27.0682Z" fill="#0055A4"/>
<path d="M11.4634 14.1461L29.9398 5.1254L26.7166 3.63706L8.24028 12.6577V18.4504L11.4634 19.9388V14.1461Z" fill="#FFD100"/>
<path d="M25.805 28.8624C25.8073 29.136 25.5845 29.4582 25.3082 29.5821L24.0666 30.1388C23.7943 30.2608 23.5716 30.1406 23.5685 29.8705L23.4958 23.6913L22.6924 24.0783C22.3146 24.2604 22.0735 23.9618 22.2574 23.5403L24.1394 19.2276C24.3292 18.7925 24.8145 18.5479 25.0126 18.7888L27.0182 21.2286C27.2185 21.4721 26.974 22.0154 26.5797 22.2053L25.7515 22.6043L25.805 28.8624Z" fill="#FFD100"/>
<path d="M34.5476 18.3665L33.6533 18.7975L33.6351 25.3331C33.6343 25.6187 33.3914 25.9586 33.0933 26.0922L31.7544 26.6925C31.4609 26.8241 31.2234 26.7021 31.2233 26.4202L31.2187 19.9705L30.3525 20.3878C29.945 20.5841 29.69 20.2763 29.8923 19.8332L31.9629 15.2964C32.1719 14.8385 32.696 14.5743 32.9057 14.8227L35.0306 17.3383C35.2427 17.5894 34.9735 18.1614 34.5476 18.3665Z" fill="#FFD100"/>
<path d="M36.0255 27.0682C36.0246 27.2117 35.9004 27.3819 35.7481 27.4484L21.5667 33.6356C21.4344 33.6933 21.3256 33.6328 21.3236 33.5004L21.3128 32.7806C21.3108 32.6479 21.4165 32.4928 21.549 32.4342L35.7557 26.1492C35.9081 26.0818 36.0312 26.1437 36.0303 26.2876L36.0255 27.0682Z" fill="#FFD100"/>
</svg>
