<svg width="8" height="12" viewBox="0 0 8 12" fill="none" xmlns="http://www.w3.org/2000/svg">
	<path d="M6.83484 1.35197C6.83484 1.62557 6.61288 1.84753 6.3392 1.84753H0.828648C0.554971 1.84753 0.333168 1.62557 0.333168 1.35197C0.333168 1.0783 0.554971 0.856414 0.828648 0.856414H6.3392C6.61288 0.856414 6.83484 1.0783 6.83484 1.35197Z" fill="#231F20"/>
	<path d="M6.83484 10.648C6.83484 10.9218 6.61288 11.1437 6.3392 11.1437H0.828648C0.554971 11.1437 0.333168 10.9218 0.333168 10.648C0.333168 10.3744 0.554971 10.1525 0.828648 10.1525H6.3392C6.61288 10.1525 6.83484 10.3744 6.83484 10.648Z" fill="#231F20"/>
	<path d="M1.02726 10.5746C0.933771 10.5746 0.850546 10.5082 0.832688 10.4129C0.392154 8.06519 2.03826 6.6396 2.66488 6.19114C0.320483 4.1344 0.875029 1.73821 0.900482 1.63446C0.926581 1.52813 1.0338 1.46284 1.14022 1.48918C1.2464 1.51528 1.31152 1.6225 1.2855 1.72884C1.26126 1.82976 0.742675 4.12883 3.1198 6.0562C3.1707 6.09758 3.19801 6.16141 3.19244 6.2267C3.18702 6.29207 3.14953 6.35049 3.0924 6.38289C2.99625 6.43743 0.737099 7.75378 1.22232 10.3399C1.24244 10.4474 1.17165 10.551 1.06402 10.5711C1.05166 10.5735 1.03946 10.5746 1.02726 10.5746Z" fill="#231F20"/>
	<path d="M6.14059 10.5746C6.12847 10.5746 6.11619 10.5735 6.1039 10.5711C5.99619 10.551 5.92541 10.4474 5.94553 10.3399C6.43204 7.74683 4.09912 6.39614 4.07544 6.38289C4.01832 6.35049 3.98091 6.29207 3.97541 6.2267C3.97 6.16141 3.99715 6.09758 4.04805 6.05621C6.42744 4.12705 5.9057 1.82556 5.88226 1.7286C5.85673 1.62226 5.92194 1.51512 6.02811 1.48926C6.13437 1.46349 6.24135 1.52837 6.26737 1.63446C6.2929 1.73821 6.84737 4.1344 4.50305 6.19114C5.12959 6.6396 6.77577 8.06519 6.33516 10.4129C6.3173 10.5082 6.23408 10.5746 6.14059 10.5746Z" fill="#231F20"/>
	<path d="M5.60576 10.2552C5.60576 10.2552 5.60576 10.2552 3.58393 10.2552C1.56201 10.2552 1.56201 10.2552 1.56201 10.2552C1.56201 10.2552 1.20519 8.95941 3.58393 7.94785C5.96274 8.95941 5.60576 10.2552 5.60576 10.2552Z" fill="#231F20"/>
	<path d="M3.66327 9.85559H3.50458V5.83172H3.66327V9.85559Z" fill="#231F20"/>
	<path d="M3.58392 6.09991C4.23551 5.62286 4.6813 5.10928 4.98576 4.61469H2.18208C2.48671 5.10928 2.93241 5.62286 3.58392 6.09991Z" fill="#231F20"/>
</svg>
