<svg width="8" height="12" viewBox="0 0 8 12" fill="none" xmlns="http://www.w3.org/2000/svg">
	<path d="M7.3018 1.35197C7.3018 1.62557 7.07992 1.84753 6.80616 1.84753H1.29563C1.02196 1.84753 0.800072 1.62557 0.800072 1.35197C0.800072 1.0783 1.02196 0.856414 1.29563 0.856414H6.80616C7.07992 0.856414 7.3018 1.0783 7.3018 1.35197Z" fill="#231F20"/>
	<path d="M7.3018 10.648C7.3018 10.9218 7.07992 11.1437 6.80616 11.1437H1.29563C1.02196 11.1437 0.800072 10.9218 0.800072 10.648C0.800072 10.3744 1.02196 10.1525 1.29563 10.1525H6.80616C7.07992 10.1525 7.3018 10.3744 7.3018 10.648Z" fill="#231F20"/>
	<path d="M1.49429 10.5746C1.40072 10.5746 1.31754 10.5082 1.29969 10.4129C0.859116 8.06519 2.50528 6.6396 3.13189 6.19114C0.787468 4.1344 1.34197 1.73821 1.36749 1.63446C1.39349 1.52813 1.50081 1.46284 1.60718 1.48918C1.71345 1.51528 1.77848 1.6225 1.75247 1.72884C1.72824 1.82976 1.20964 4.12883 3.5868 6.0562C3.63769 6.09758 3.66493 6.16141 3.65945 6.2267C3.65395 6.29207 3.61652 6.35049 3.5594 6.38289C3.46322 6.43743 1.2041 7.75378 1.68932 10.3399C1.70949 10.4474 1.63863 10.551 1.53103 10.5711C1.51871 10.5735 1.5064 10.5746 1.49429 10.5746Z" fill="#231F20"/>
	<path d="M6.60755 10.5746C6.59543 10.5746 6.58315 10.5735 6.57087 10.5711C6.46324 10.551 6.39237 10.4474 6.41257 10.3399C6.89908 7.74683 4.56605 6.39614 4.54246 6.38289C4.48534 6.35049 4.44791 6.29207 4.44242 6.2267C4.43693 6.16141 4.46412 6.09758 4.51506 6.05621C6.8944 4.12705 6.37266 1.82556 6.34931 1.7286C6.32369 1.62226 6.3889 1.51512 6.49515 1.48926C6.60133 1.46349 6.70831 1.52837 6.73441 1.63446C6.75986 1.73821 7.31441 4.1344 4.96998 6.19114C5.59655 6.6396 7.24265 8.06519 6.8022 10.4129C6.78434 10.5082 6.70112 10.5746 6.60755 10.5746Z" fill="#231F20"/>
	<path d="M4.13022 9.85559H3.97163V5.83172H4.13022V9.85559Z" fill="#231F20"/>
	<path d="M2.01026 2.41533C2.00314 3.07371 2.18898 4.7367 4.05091 6.09991C5.91289 4.7367 6.09874 3.07371 6.09163 2.41533H2.01026Z" fill="#231F20"/>
</svg>
