<svg width="16" height="16" viewBox="0 0 16 16" fill="none" xmlns="http://www.w3.org/2000/svg">
	<path d="M8.03587 16C5.88972 16 3.87213 15.1683 2.35449 13.6581C0.836287 12.1468 0 10.1378 0 7.99973C0 5.86217 0.836305 3.85265 2.35394 2.34188C3.87157 0.831731 5.88917 0 8.03532 0C10.1815 0 12.1991 0.831731 13.7161 2.34188C15.2349 3.85265 16.0706 5.86217 16.0706 7.99914C16.0712 10.1373 15.2349 12.1468 13.7161 13.6575C12.1996 15.1677 10.182 16 8.03587 16ZM8.03587 1.14737C6.19509 1.14737 4.46508 1.86027 3.16443 3.15521C1.86434 4.44899 1.14798 6.16981 1.14798 7.9997C1.14798 9.82958 1.86373 11.5504 3.16384 12.8436C4.4645 14.1385 6.19451 14.8514 8.03528 14.8514C9.87552 14.8514 11.6061 14.1385 12.9067 12.8436C14.2068 11.5492 14.9232 9.82901 14.9226 7.9991C14.9226 6.16922 14.2068 4.44899 12.9067 3.15577C11.6066 1.86086 9.87611 1.14737 8.03587 1.14737Z" fill="#343A40"/>
	<path d="M12.0538 7.42568H8.60986V3.98174C8.60986 3.66489 8.35273 3.40775 8.03587 3.40775C7.71901 3.40775 7.46188 3.66489 7.46188 3.98174V7.42568H4.01793C3.70109 7.42568 3.44394 7.68285 3.44394 7.99971C3.44394 8.31657 3.70109 8.5737 4.01793 8.5737H7.46188V12.0176C7.46188 12.3351 7.71904 12.5917 8.0359 12.5917C8.35276 12.5917 8.60989 12.3351 8.60989 12.0177V8.57366H12.0538C12.3713 8.57366 12.6278 8.31652 12.6278 7.99966C12.6278 7.68279 12.3712 7.42566 12.0538 7.42566L12.0538 7.42568Z" fill="#343A40"/>
</svg>